  0
SECTION
  2
HEADER
  9
$ACADVER
  1
AC1018
  9
$ACADMAINTVER
 70
     0
  9
$DWGCODEPAGE
  3
ANSI_1252
  9
$EXTMIN
 10
661527.396126339
 20
6867880.87722464
 30
0.0
  9
$EXTMAX
 10
662149.710704928
 20
6868420.90184642
 30
0.0
  9
$LIMMIN
 10
0.0
 20
0.0
  9
$LIMMAX
 10
12.0
 20
9.0
  9
$ORTHOMODE
 70
     0
  9
$REGENMODE
 70
     1
  9
$FILLMODE
 70
     1
  9
$QTEXTMODE
 70
     0
  9
$MIRRTEXT
 70
     1
  9
$LTSCALE
 40
1.0
  9
$ATTMODE
 70
     1
  9
$TEXTSIZE
 40
0.2
  9
$TRACEWID
 40
0.05
  9
$TEXTSTYLE
  7
Standard
  9
$CLAYER
  8
0
  9
$CELTYPE
  6
ByLayer
  9
$CECOLOR
 62
   256
  9
$CELTSCALE
 40
1.0
  9
$DISPSILH
 70
     0
  9
$LUNITS
 70
     2
  9
$LUPREC
 70
     4
  9
$SKETCHINC
 40
0.1
  9
$FILLETRAD
 40
0.5
  9
$AUNITS
 70
     0
  9
$AUPREC
 70
     0
  9
$MENU
  1
.
  9
$ELEVATION
 40
0.0
  9
$PELEVATION
 40
0.0
  9
$THICKNESS
 40
0.0
  9
$LIMCHECK
 70
     0
  9
$CHAMFERA
 40
0.5
  9
$CHAMFERB
 40
0.5
  9
$CHAMFERC
 40
1.0
  9
$CHAMFERD
 40
0.0
  9
$SKPOLY
 70
     0
  9
$ANGBASE
 50
0.0
  9
$ANGDIR
 70
     0
  9
$PDMODE
 70
     0
  9
$PDSIZE
 40
0.0
  9
$PLINEWID
 40
0.0
  9
$SPLFRAME
 70
     0
  9
$SPLINETYPE
 70
     6
  9
$SPLINESEGS
 70
     8
  9
$HANDSEED
  5
00020048
  9
$SURFTAB1
 70
     6
  9
$SURFTAB2
 70
     6
  9
$SURFTYPE
 70
     6
  9
$SURFU
 70
     6
  9
$SURFV
 70
     6
  9
$UCSBASE
  2

  9
$UCSNAME
  2

  9
$UCSORG
 10
0.0
 20
0.0
 30
0.0
  9
$UCSXDIR
 10
1.0
 20
0.0
 30
0.0
  9
$UCSYDIR
 10
0.0
 20
1.0
 30
0.0
  9
$UCSORTHOREF
  2

  9
$UCSORTHOVIEW
 70
     0
  9
$UCSORGTOP
 10
0.0
 20
0.0
 30
0.0
  9
$UCSORGBOTTOM
 10
0.0
 20
0.0
 30
0.0
  9
$UCSORGLEFT
 10
0.0
 20
0.0
 30
0.0
  9
$UCSORGRIGHT
 10
0.0
 20
0.0
 30
0.0
  9
$UCSORGFRONT
 10
0.0
 20
0.0
 30
0.0
  9
$UCSORGBACK
 10
0.0
 20
0.0
 30
0.0
  9
$PUCSBASE
  2

  9
$PUCSNAME
  2

  9
$PUCSORG
 10
0.0
 20
0.0
 30
0.0
  9
$PUCSXDIR
 10
1.0
 20
0.0
 30
0.0
  9
$PUCSYDIR
 10
0.0
 20
1.0
 30
0.0
  9
$PUCSORTHOREF
  2

  9
$PUCSORTHOVIEW
 70
     0
  9
$PUCSORGTOP
 10
0.0
 20
0.0
 30
0.0
  9
$PUCSORGBOTTOM
 10
0.0
 20
0.0
 30
0.0
  9
$PUCSORGLEFT
 10
0.0
 20
0.0
 30
0.0
  9
$PUCSORGRIGHT
 10
0.0
 20
0.0
 30
0.0
  9
$PUCSORGFRONT
 10
0.0
 20
0.0
 30
0.0
  9
$PUCSORGBACK
 10
0.0
 20
0.0
 30
0.0
  9
$WORLDVIEW
 70
     1
  9
$SHADEDGE
 70
     3
  9
$SHADEDIF
 70
    70
  9
$TILEMODE
 70
     1
  9
$MAXACTVP
 70
    64
  9
$PINSBASE
 10
0.0
 20
0.0
 30
0.0
  9
$PLIMCHECK
 70
     0
  9
$PEXTMIN
 10
1.000000000000000E+20
 20
1.000000000000000E+20
 30
1.000000000000000E+20
  9
$PEXTMAX
 10
-1.000000000000000E+20
 20
-1.000000000000000E+20
 30
-1.000000000000000E+20
  9
$PLIMMIN
 10
0.0
 20
0.0
  9
$PLIMMAX
 10
12.0
 20
9.0
  9
$UNITMODE
 70
     0
  9
$VISRETAIN
 70
     1
  9
$PLINEGEN
 70
     0
  9
$PSLTSCALE
 70
     1
  9
$TREEDEPTH
 70
  3020
  9
$CMLSTYLE
  2
Standard
  9
$CMLJUST
 70
     0
  9
$CMLSCALE
 40
1.0
  9
$PROXYGRAPHICS
 70
     1
  9
$MEASUREMENT
 70
     0
  9
$CELWEIGHT
370
    -1
  9
$ENDCAPS
280
     0
  9
$JOINSTYLE
280
     0
  9
$LWDISPLAY
290
     0
  9
$INSUNITS
 70
     1
  9
$HYPERLINKBASE
  1

  9
$STYLESHEET
  1

  9
$XEDIT
290
     1
  9
$CEPSNTYPE
380
     0
  9
$PSTYLEMODE
290
     1
  9
$EXTNAMES
290
     1
  9
$PSVPSCALE
 40
0.0
  9
$OLESTARTUP
290
     0
  9
$SORTENTS
280
   127
  9
$INDEXCTL
280
     0
  9
$HIDETEXT
280
     1
  9
$XCLIPFRAME
290
     0
  9
$HALOGAP
280
     0
  9
$OBSCOLOR
 70
   257
  9
$OBSLTYPE
280
     0
  9
$INTERSECTIONDISPLAY
280
     0
  9
$INTERSECTIONCOLOR
 70
   257
  9
$DIMASSOC
280
     2
  9
$PROJECTNAME
  1

  0
ENDSEC
  0
SECTION
  2
CLASSES
  0
CLASS
  1
ACDBDICTIONARYWDFLT
  2
AcDbDictionaryWithDefault
  3
ObjectDBX Classes
 90
        0
 91
        4
280
     0
281
     0
  0
ENDSEC
  0
SECTION
  2
TABLES
  0
TABLE
  2
VPORT
  5
8
330
0
100
AcDbSymbolTable
 70
     1
  0
VPORT
  5
29
330
8
100
AcDbSymbolTableRecord
100
AcDbViewportTableRecord
  2
*Active
 70
     0
 10
0.0
 20
0.0
 11
1.0
 21
1.0
 12
80.25
 22
106.4409457059851
 13
0.0
 23
0.0
 14
0.5
 24
0.5
 15
0.5
 25
0.5
 16
0.0
 26
0.0
 36
1.0
 17
0.0
 27
0.0
 37
0.0
 40
113.3818914119703
 41
0.8863849310366128
 42
50.0
 43
0.0
 44
0.0
 50
0.0
 51
0.0
 71
     0
 72
  1000
 73
     1
 74
     3
 75
     0
 76
     0
 77
     0
 78
     0
281
     0
 65
     1
110
0.0
120
0.0
130
0.0
111
1.0
121
0.0
131
0.0
112
0.0
122
1.0
132
0.0
 79
     0
146
0.0
  0
ENDTAB
  0
TABLE
  2
LTYPE
  5
5
330
0
100
AcDbSymbolTable
 70
     1
  0
LTYPE
  5
14
330
5
100
AcDbSymbolTableRecord
100
AcDbLinetypeTableRecord
  2
ByBlock
 70
     0
  3

 72
    65
 73
     0
 40
0.0
  0
LTYPE
  5
15
330
5
100
AcDbSymbolTableRecord
100
AcDbLinetypeTableRecord
  2
ByLayer
 70
     0
  3

 72
    65
 73
     0
 40
0.0
  0
LTYPE
  5
16
330
5
100
AcDbSymbolTableRecord
100
AcDbLinetypeTableRecord
  2
Continuous
 70
     0
  3
Solid line
 72
    65
 73
     0
 40
0.0
  0
ENDTAB
  0
TABLE
  2
LAYER
  5
2
330
0
100
AcDbSymbolTable
 70
     1
  0
LAYER
  5
10
330
2
100
AcDbSymbolTableRecord
100
AcDbLayerTableRecord
  2
0
 70
     0
 62
     7
  6
Continuous
370
    -3
390
F
  0
ENDTAB
  0
TABLE
  2
STYLE
  5
3
330
0
100
AcDbSymbolTable
 70
     1
  0
STYLE
  5
11
330
3
100
AcDbSymbolTableRecord
100
AcDbTextStyleTableRecord
  2
Standard
 70
     0
 40
0.0
 41
1.0
 50
0.0
 71
     0
 42
0.2
  3
txt
  4

  0
ENDTAB
  0
TABLE
  2
VIEW
  5
6
330
0
100
AcDbSymbolTable
 70
     0
  0
ENDTAB
  0
TABLE
  2
UCS
  5
7
330
0
100
AcDbSymbolTable
 70
     0
  0
ENDTAB
  0
TABLE
  2
APPID
  5
9
330
0
100
AcDbSymbolTable
 70
     1
  0
APPID
  5
12
330
9
100
AcDbSymbolTableRecord
100
AcDbRegAppTableRecord
  2
ACAD
 70
     0
  0
ENDTAB
  0
TABLE
  2
DIMSTYLE
  5
A
330
0
100
AcDbSymbolTable
 70
     1
100
AcDbDimStyleTable
  0
DIMSTYLE
105
27
330
A
100
AcDbSymbolTableRecord
100
AcDbDimStyleTableRecord
  2
Standard
 70
     0
340
11
  0
ENDTAB
  0
TABLE
  2
BLOCK_RECORD
  5
1
330
0
100
AcDbSymbolTable
 70
     1
  0
BLOCK_RECORD
  5
1F
330
1
100
AcDbSymbolTableRecord
100
AcDbBlockTableRecord
  2
*Model_Space
340
22
  0
BLOCK_RECORD
  5
1B
330
1
100
AcDbSymbolTableRecord
100
AcDbBlockTableRecord
  2
*Paper_Space
340
1E
  0
ENDTAB
  0
ENDSEC
  0
SECTION
  2
BLOCKS
  0
BLOCK
  5
20
330
1F
100
AcDbEntity
  8
0
100
AcDbBlockBegin
  2
*Model_Space
 70
     0
 10
0.0
 20
0.0
 30
0.0
  3
*Model_Space
  1

  0
ENDBLK
  5
21
330
1F
100
AcDbEntity
  8
0
100
AcDbBlockEnd
  0
BLOCK
  5
1C
330
1B
100
AcDbEntity
 67
     1
  8
0
100
AcDbBlockBegin
  2
*Paper_Space
 70
     0
 10
0.0
 20
0.0
 30
0.0
  3
*Paper_Space
  1

  0
ENDBLK
  5
1D
330
1B
100
AcDbEntity
 67
     1
  8
0
100
AcDbBlockEnd
  0
ENDSEC
  0
SECTION
  2
ENTITIES
  0
LWPOLYLINE
  5
20000
100
AcDbEntity
  8
0
100
AcDbPolyline
 70
0
 90
30
 10
662055.18592523
 20
6868158.78349241
 10
662053.329978118
 20
6868159.63645728
 10
662052.831526967
 20
6868159.89234174
 10
662052.500832106
 20
6868160.17122027
 10
662052.500832105
 20
6868160.17122027
 10
662052.445776809
 20
6868160.21462536
 10
662052.387980643
 20
6868160.25430774
 10
662052.327694909
 20
6868160.29009485
 10
662052.265181731
 20
6868160.32183111
 10
662052.200712918
 20
6868160.34937852
 10
662052.134568783
 20
6868160.3726173
 10
662052.067036923
 20
6868160.39144641
 10
662051.998410969
 20
6868160.40578398
 10
662051.928989309
 20
6868160.41556767
 10
662051.85907379
 20
6868160.42075494
 10
662051.788968409
 20
6868160.42132324
 10
662051.718977984
 20
6868160.41727009
 10
662051.649406838
 20
6868160.40861312
 10
662051.580557468
 20
6868160.39538997
 10
662051.512729234
 20
6868160.37765813
 10
662051.446217054
 20
6868160.3554947
 10
662047.528865216
 20
6868158.90497141
 10
662042.677470316
 20
6868156.63303125
 10
662039.773101668
 20
6868153.73077669
 10
662039.415756706
 20
6868153.615616
 10
662039.312241626
 20
6868153.5343754
 10
662035.790391973
 20
6868152.27845652
 10
662030.344591249
 20
6868150.44133769
 10
662025.5224787
 20
6868148.76174669
 10
662024.948656904
 20
6868148.4967712
  0
LWPOLYLINE
  5
20001
100
AcDbEntity
  8
0
100
AcDbPolyline
 70
0
 90
13
 10
662010.457793791
 20
6868141.26915318
 10
662010.526356797
 20
6868140.67821505
 10
662013.362609278
 20
6868139.3785395
 10
662015.272468988
 20
6868138.72417748
 10
662016.984150859
 20
6868137.50657605
 10
662018.915406901
 20
6868135.88683262
 10
662022.564542013
 20
6868134.12367062
 10
662028.568522661
 20
6868131.36239645
 10
662033.154148354
 20
6868129.3556786
 10
662033.890850388
 20
6868130.3711334
 10
662033.594993411
 20
6868129.29403435
 10
662039.110902077
 20
6868126.86124191
 10
662041.651810752
 20
6868126.14239279
  0
LWPOLYLINE
  5
20002
100
AcDbEntity
  8
0
100
AcDbPolyline
 70
0
 90
105
 10
662145.143048336
 20
6868407.70827814
 10
662143.925487646
 20
6868406.18527846
 10
662143.434736799
 20
6868406.25243051
 10
662143.70706316
 20
6868405.69833963
 10
662138.148739227
 20
6868398.66347202
 10
662132.527482928
 20
6868391.5526623
 10
662128.973798246
 20
6868387.04938831
 10
662124.631173586
 20
6868381.69909247
 10
662124.181174086
 20
6868381.79637498
 10
662124.548540741
 20
6868381.16808181
 10
662122.066817287
 20
6868378.10918434
 10
662118.148209563
 20
6868372.89308378
 10
662112.790696437
 20
6868366.48114833
 10
662109.115582027
 20
6868361.66453315
 10
662107.385070211
 20
6868359.56986003
 10
662103.958259643
 20
6868355.96077214
 10
662103.267416447
 20
6868355.33848052
 10
662102.675480745
 20
6868354.71910269
 10
662102.675480745
 20
6868354.71910269
 10
662102.500693825
 20
6868354.5349297
 10
662102.314970109
 20
6868354.36179144
 10
662102.119004952
 20
6868354.20033614
 10
662101.913532056
 20
6868354.0511683
 10
662101.69932072
 20
6868353.9148464
 10
662101.477172957
 20
6868353.79188085
 10
662101.247920499
 20
6868353.68273202
 10
662101.012421675
 20
6868353.58780858
 10
662097.51745262
 20
6868351.81021961
 10
662094.075982189
 20
6868350.23551109
 10
662093.820586912
 20
6868350.16638453
 10
662093.295661591
 20
6868349.92165429
 10
662093.128273187
 20
6868349.85001237
 10
662092.956663489
 20
6868349.78917197
 10
662092.781528702
 20
6868349.73937992
 10
662092.603579329
 20
6868349.70083822
 10
662092.423537295
 20
6868349.67370322
 10
662092.242133013
 20
6868349.65808501
 10
662092.060102422
 20
6868349.65404695
 10
662091.878184002
 20
6868349.66160543
 10
662091.697115778
 20
6868349.68072977
 10
662091.517632328
 20
6868349.71134241
 10
662085.076547792
 20
6868351.02228839
 10
662078.261181218
 20
6868352.23995144
 10
662072.477835938
 20
6868353.49997373
 10
662067.711645914
 20
6868354.49126594
 10
662067.553173853
 20
6868354.84018537
 10
662067.1633607
 20
6868354.782876
 10
662061.807878642
 20
6868355.66127229
 10
662054.85289774
 20
6868356.80463074
 10
662050.670800787
 20
6868357.45015746
 10
662046.080833128
 20
6868358.46996619
 10
662040.800398977
 20
6868360.04309529
 10
662040.626882454
 20
6868360.07221955
 10
662040.180162835
 20
6868359.88740155
 10
662034.650865921
 20
6868359.46329068
 10
662032.519902781
 20
6868359.67873373
 10
662029.259758748
 20
6868361.24084363
 10
662024.346891951
 20
6868362.92407678
 10
662019.295215229
 20
6868363.76326592
 10
662015.121524364
 20
6868364.47845061
 10
662014.563946799
 20
6868364.51781154
 10
662014.478683497
 20
6868364.82443456
 10
662014.391669773
 20
6868364.5510966
 10
662013.856280037
 20
6868364.67357666
 10
662006.321363339
 20
6868365.80541714
 10
661999.999635274
 20
6868367.09277008
 10
661994.415483361
 20
6868368.26686301
 10
661988.297963987
 20
6868368.91532249
 10
661985.177226666
 20
6868369.54892145
 10
661985.03946517
 20
6868370.31620202
 10
661984.603283763
 20
6868369.85757376
 10
661978.635660325
 20
6868370.58141841
 10
661974.130978829
 20
6868370.98743826
 10
661969.462144973
 20
6868371.86214998
 10
661964.510693202
 20
6868373.09790939
 10
661956.920626352
 20
6868375.03565903
 10
661956.74648008
 20
6868375.43342872
 10
661956.576576341
 20
6868375.04570492
 10
661949.884958026
 20
6868376.1442748
 10
661944.065901332
 20
6868377.33460274
 10
661937.730570997
 20
6868378.61154913
 10
661931.217954707
 20
6868379.82683883
 10
661931.129787025
 20
6868380.38843923
 10
661930.800110868
 20
6868379.83514761
 10
661922.860168406
 20
6868381.22867969
 10
661916.925367734
 20
6868382.42665411
 10
661911.310369677
 20
6868383.45665164
 10
661908.047679937
 20
6868383.99410911
 10
661907.929259881
 20
6868384.58037374
 10
661907.434271356
 20
6868384.20776479
 10
661900.791127426
 20
6868385.65265607
 10
661893.126248076
 20
6868386.87186789
 10
661888.403980729
 20
6868387.71660154
 10
661884.877960411
 20
6868388.4819196
 10
661884.81068986
 20
6868389.09972612
 10
661884.510611682
 20
6868388.58961143
 10
661880.156479413
 20
6868389.40857457
 10
661875.586371756
 20
6868390.11572178
 10
661874.909494663
 20
6868389.72522394
 10
661873.45800265
 20
6868389.98073083
 10
661870.472745691
 20
6868390.79754076
 10
661865.30271485
 20
6868391.57666813
 10
661860.482519213
 20
6868392.48211971
 10
661855.615334976
 20
6868393.57121107
 10
661855.458576976
 20
6868394.53801878
  0
LWPOLYLINE
  5
20003
100
AcDbEntity
  8
0
100
AcDbPolyline
 70
0
 90
63
 10
662103.267416447
 20
6868355.33848052
 10
662102.688408571
 20
6868354.70693105
 10
662102.688408571
 20
6868354.70693105
 10
662102.451613401
 20
6868354.46444608
 10
662102.200019457
 20
6868354.23735271
 10
662101.934625276
 20
6868354.02655223
 10
662101.656484169
 20
6868353.83288128
 10
662101.366700032
 20
6868353.65710852
 10
662101.066422976
 20
6868353.49993154
 10
662100.756844754
 20
6868353.36197418
 10
662100.756844754
 20
6868353.36197418
 10
662099.555622476
 20
6868352.41805442
 10
662098.421140245
 20
6868351.39488802
 10
662096.182328216
 20
6868348.79720206
 10
662094.322239914
 20
6868346.01874061
 10
662091.217746872
 20
6868341.97459832
 10
662088.410442206
 20
6868338.24488406
 10
662084.867045155
 20
6868333.7558424
 10
662081.122943308
 20
6868328.8016207
 10
662076.92413228
 20
6868323.28343029
 10
662076.575736771
 20
6868322.74267105
 10
662076.0444019
 20
6868322.09820897
 10
662072.107782094
 20
6868319.84953108
 10
662069.198517525
 20
6868315.99928343
 10
662066.300452082
 20
6868311.60314167
 10
662063.85138459
 20
6868306.50959445
 10
662060.907268413
 20
6868301.22079611
 10
662058.383691445
 20
6868297.04275674
 10
662055.471143638
 20
6868292.13592275
 10
662054.791954084
 20
6868291.95151586
 10
662055.184405079
 20
6868291.55343015
 10
662053.768078668
 20
6868288.94221412
 10
662051.964874586
 20
6868285.3636592
 10
662049.400186589
 20
6868280.26346287
 10
662047.065725603
 20
6868275.12154036
 10
662044.515891715
 20
6868269.43910151
 10
662041.953366587
 20
6868263.96432643
 10
662039.287759575
 20
6868258.13956832
 10
662038.795497824
 20
6868257.99675043
 10
662039.149645972
 20
6868257.6441376
 10
662036.652409905
 20
6868252.30979439
 10
662033.398918302
 20
6868245.62206754
 10
662031.364388022
 20
6868241.28941176
 10
662029.03130361
 20
6868235.5987016
 10
662026.741009088
 20
6868230.56547822
 10
662023.656940196
 20
6868223.61865507
 10
662023.003009398
 20
6868223.76639814
 10
662023.412818819
 20
6868223.29170063
 10
662021.80759471
 20
6868220.23613068
 10
662018.647052406
 20
6868213.34671146
 10
662015.458228168
 20
6868207.17473983
 10
662012.429615619
 20
6868200.52892021
 10
662009.891970168
 20
6868193.90323227
 10
662009.038076528
 20
6868192.04377664
 10
662007.697846989
 20
6868189.67987171
 10
662007.474820174
 20
6868189.59274403
 10
662007.454444406
 20
6868189.18717192
 10
662004.846518892
 20
6868183.61800656
 10
662000.718141775
 20
6868174.65805053
 10
661998.32585439
 20
6868167.84792951
 10
661994.823319259
 20
6868160.80860871
 10
661991.982968108
 20
6868155.49229546
 10
661991.696760156
 20
6868155.42041041
  0
LWPOLYLINE
  5
20004
100
AcDbEntity
  8
0
100
AcDbPolyline
 70
0
 90
76
 10
662014.478683497
 20
6868364.82443456
 10
662013.395292112
 20
6868363.02226911
 10
662010.214799418
 20
6868358.64913681
 10
662006.849906233
 20
6868354.85954962
 10
662004.523795708
 20
6868351.41881015
 10
662003.238732703
 20
6868345.54441166
 10
662001.908195227
 20
6868339.31205263
 10
662001.762729213
 20
6868338.81333465
 10
662000.636996218
 20
6868338.80571369
 10
661999.210419075
 20
6868332.14251778
 10
661997.635609072
 20
6868324.72726496
 10
661996.457162909
 20
6868317.80889783
 10
661995.044208063
 20
6868309.53835791
 10
661993.727180052
 20
6868302.33362734
 10
661994.893015587
 20
6868301.99199101
 10
661993.647656917
 20
6868301.83169657
 10
661992.803071338
 20
6868299.32331009
 10
661992.582913772
 20
6868296.23428413
 10
661992.582913772
 20
6868296.23428413
 10
661992.575183992
 20
6868296.0293422
 10
661992.581172511
 20
6868295.82434199
 10
661992.600852534
 20
6868295.62020077
 10
661992.634136005
 20
6868295.4178319
 10
661992.680874004
 20
6868295.21814088
 10
661992.740857407
 20
6868295.02202118
 10
661992.813817829
 20
6868294.83035032
 10
661992.89942882
 20
6868294.64398588
 10
661992.997307326
 20
6868294.46376173
 10
661993.107015406
 20
6868294.29048427
 10
661993.228062188
 20
6868294.12492877
 10
661993.359906067
 20
6868293.96783601
 10
661993.501957127
 20
6868293.81990887
 10
661993.501957128
 20
6868293.81990887
 10
661993.575785415
 20
6868293.73235142
 10
661993.643722608
 20
6868293.64014806
 10
661993.705477164
 20
6868293.54369447
 10
661993.760784071
 20
6868293.44340455
 10
661993.809405986
 20
6868293.33970868
 10
661993.851134257
 20
6868293.23305188
 10
661993.88578981
 20
6868293.12389184
 10
661993.913223927
 20
6868293.01269701
 10
661993.933318877
 20
6868292.89994456
 10
661993.945988426
 20
6868292.78611836
 10
661993.951178205
 20
6868292.67170687
 10
661993.948865941
 20
6868292.55720109
 10
661993.939061558
 20
6868292.44309239
 10
661993.92180713
 20
6868292.32987045
 10
661993.663320429
 20
6868290.86103026
 10
661992.844892479
 20
6868286.19754026
 10
661992.498238878
 20
6868282.35218753
 10
661991.770728377
 20
6868278.02856789
 10
661990.886354953
 20
6868273.57327629
 10
661991.536772182
 20
6868273.17052667
 10
661990.878308475
 20
6868273.16651095
 10
661989.450081929
 20
6868265.38203336
 10
661988.225741741
 20
6868257.74726837
 10
661987.116169436
 20
6868251.40541336
 10
661985.86897445
 20
6868245.87142685
 10
661984.78709229
 20
6868240.1254046
 10
661985.248853476
 20
6868239.73304357
 10
661984.655089961
 20
6868239.66241577
 10
661983.13436933
 20
6868231.05570611
 10
661981.191886412
 20
6868221.29794876
 10
661979.493775694
 20
6868212.52372633
 10
661978.292844425
 20
6868204.8248067
 10
661978.697955984
 20
6868204.35282858
 10
661978.000002736
 20
6868204.29993901
 10
661976.208117742
 20
6868195.39220395
 10
661974.894903434
 20
6868187.88791383
 10
661973.654419156
 20
6868179.91445917
 10
661974.045524516
 20
6868179.69098589
 10
661973.246216301
 20
6868179.53696912
 10
661972.303624263
 20
6868174.46216166
 10
661970.426658661
 20
6868162.72745353
 10
661969.712804149
 20
6868155.96358645
 10
661969.709920684
 20
6868155.31879258
  0
LWPOLYLINE
  5
20005
100
AcDbEntity
  8
0
100
AcDbPolyline
 70
0
 90
20
 10
661863.130227814
 20
6868327.15129879
 10
661862.943580396
 20
6868327.63478003
 10
661864.246531728
 20
6868335.60836101
 10
661865.43167734
 20
6868341.9997411
 10
661865.775164581
 20
6868342.14500736
 10
661865.465616372
 20
6868342.31346586
 10
661866.392269006
 20
6868347.18215419
 10
661867.744742124
 20
6868351.97555428
 10
661868.538939909
 20
6868355.87689113
 10
661868.586819087
 20
6868356.22816324
 10
661868.66141007
 20
6868356.75866725
 10
661869.601394574
 20
6868361.35424945
 10
661870.662392471
 20
6868367.31535194
 10
661871.365155925
 20
6868370.68889127
 10
661871.348384612
 20
6868371.10990609
 10
661871.777403818
 20
6868371.42567688
 10
661872.181931261
 20
6868374.51353554
 10
661872.160381907
 20
6868378.73347051
 10
661872.858064761
 20
6868382.74535055
 10
661873.866305126
 20
6868387.3189854
  0
LWPOLYLINE
  5
20006
100
AcDbEntity
  8
0
100
AcDbPolyline
 70
0
 90
6
 10
661851.634303209
 20
6868396.34785378
 10
661852.240639792
 20
6868399.67624859
 10
661852.326768756
 20
6868399.95554245
 10
661852.385294167
 20
6868400.4577955
 10
661853.489505401
 20
6868406.1532068
 10
661854.112913184
 20
6868409.81614198
  0
LWPOLYLINE
  5
20007
100
AcDbEntity
  8
0
100
AcDbPolyline
 70
0
 90
113
 10
661853.909173421
 20
6868394.13395618
 10
661853.37562073
 20
6868393.18322963
 10
661853.37562073
 20
6868393.18322963
 10
661853.332168146
 20
6868393.11174755
 10
661853.28385117
 20
6868393.0434593
 10
661853.230903611
 20
6868392.97869533
 10
661853.173581686
 20
6868392.91776905
 10
661853.112162778
 20
6868392.86097527
 10
661853.046944099
 20
6868392.80858883
 10
661852.978241246
 20
6868392.76086322
 10
661852.906386676
 20
6868392.7180294
 10
661852.831728098
 20
6868392.68029464
 10
661852.754626789
 20
6868392.64784155
 10
661852.675455848
 20
6868392.62082715
 10
661852.594598389
 20
6868392.59938219
 10
661852.512445685
 20
6868392.58361043
 10
661852.429395278
 20
6868392.57358819
 10
661852.345849056
 20
6868392.56936397
 10
661852.262211303
 20
6868392.57095821
 10
661849.088855835
 20
6868392.74200137
 10
661842.30297255
 20
6868394.08151656
 10
661835.432073419
 20
6868395.29167788
 10
661829.529339842
 20
6868396.43874795
 10
661829.422534496
 20
6868396.47167645
 10
661829.318217204
 20
6868396.5117959
 10
661829.216871487
 20
6868396.55892035
 10
661829.118967092
 20
6868396.61283136
 10
661829.024957819
 20
6868396.67327906
 10
661828.935279409
 20
6868396.73998326
 10
661828.850347531
 20
6868396.81263478
 10
661828.770555854
 20
6868396.89089688
 10
661828.696274222
 20
6868396.9744068
 10
661828.627846936
 20
6868397.06277747
 10
661828.565591165
 20
6868397.15559927
 10
661828.509795471
 20
6868397.25244197
 10
661828.460718474
 20
6868397.35285669
 10
661828.418587649
 20
6868397.456378
 10
661828.383598279
 20
6868397.56252607
 10
661828.355912542
 20
6868397.67080888
 10
661828.335658766
 20
6868397.78072455
 10
661828.322930828
 20
6868397.89176358
 10
661828.317787723
 20
6868398.00341131
 10
661828.320253291
 20
6868398.11515025
 10
661828.386187125
 20
6868399.28901452
 10
661828.187392611
 20
6868397.74438282
 10
661828.187392611
 20
6868397.74438282
 10
661828.175109679
 20
6868397.66856692
 10
661828.157910487
 20
6868397.593713
 10
661828.135868204
 20
6868397.5201395
 10
661828.109076602
 20
6868397.44815942
 10
661828.077649656
 20
6868397.37807898
 10
661828.041721061
 20
6868397.3101963
 10
661828.001443666
 20
6868397.24480018
 10
661827.956988815
 20
6868397.18216881
 10
661827.908545628
 20
6868397.12256865
 10
661827.856320191
 20
6868397.06625324
 10
661827.800534679
 20
6868397.01346216
 10
661827.741426413
 20
6868396.96441999
 10
661827.67924685
 20
6868396.91933536
 10
661827.614260513
 20
6868396.87840008
 10
661827.614260513
 20
6868396.87840008
 10
661827.591110232
 20
6868396.85363811
 10
661827.566341675
 20
6868396.83049488
 10
661827.54006777
 20
6868396.80907591
 10
661827.512408312
 20
6868396.78947885
 10
661827.483489409
 20
6868396.77179305
 10
661827.453442912
 20
6868396.75609914
 10
661827.422405816
 20
6868396.7424687
 10
661827.390519629
 20
6868396.73096384
 10
661827.357929733
 20
6868396.72163705
 10
661827.324784716
 20
6868396.71453083
 10
661827.2912357
 20
6868396.70967759
 10
661827.257435645
 20
6868396.70709945
 10
661827.223538659
 20
6868396.70680818
 10
661827.189699291
 20
6868396.70880509
 10
661827.156071827
 20
6868396.71308108
 10
661827.122809587
 20
6868396.71961667
 10
661827.090064225
 20
6868396.72838204
 10
661824.604657777
 20
6868397.4844788
 10
661824.604657777
 20
6868397.4844788
 10
661824.458799702
 20
6868397.53430499
 10
661824.31664757
 20
6868397.59388686
 10
661824.178853033
 20
6868397.66295127
 10
661824.046047765
 20
6868397.74118162
 10
661823.918840568
 20
6868397.82821929
 10
661823.797814582
 20
6868397.92366528
 10
661823.683524612
 20
6868398.02708206
 10
661823.576494582
 20
6868398.13799554
 10
661823.477215137
 20
6868398.25589728
 10
661823.386141392
 20
6868398.38024678
 10
661823.303690844
 20
6868398.51047403
 10
661823.230241462
 20
6868398.64598202
 10
661822.783925036
 20
6868398.96733834
 10
661822.488040837
 20
6868399.186322
 10
661821.659793081
 20
6868400.47840792
 10
661819.069239465
 20
6868402.96217271
 10
661814.729114607
 20
6868406.32690693
 10
661814.402235457
 20
6868406.23602367
 10
661814.411428915
 20
6868406.61480771
 10
661813.292407687
 20
6868408.1309918
 10
661813.292407687
 20
6868408.1309918
 10
661812.908778826
 20
6868408.95362312
 10
661812.580921314
 20
6868409.80002897
 10
661812.310297837
 20
6868410.66643323
 10
661812.098115739
 20
6868411.54897059
 10
661811.945321638
 20
6868412.44370373
 10
661811.852597203
 20
6868413.34664095
 10
661811.820356111
 20
6868414.25375393
 10
661811.848742201
 20
6868415.16099574
 10
661811.937628835
 20
6868416.06431885
 10
661812.083811551
 20
6868416.52248352
 10
661812.088391865
 20
6868416.88192727
 10
661812.418504637
 20
6868418.32180133
  0
LWPOLYLINE
  5
20008
100
AcDbEntity
  8
0
100
AcDbPolyline
 70
0
 90
56
 10
661823.167919242
 20
6868397.25375734
 10
661823.167501708
 20
6868394.11653017
 10
661823.616042978
 20
6868390.15102775
 10
661823.779481335
 20
6868387.31667547
 10
661823.950964031
 20
6868386.31286141
 10
661823.573350501
 20
6868383.87215421
 10
661823.573350501
 20
6868383.87215421
 10
661823.55904286
 20
6868383.79705448
 10
661823.539552848
 20
6868383.72313008
 10
661823.514974629
 20
6868383.65073816
 10
661823.485426952
 20
6868383.58022849
 10
661823.451052576
 20
6868383.51194174
 10
661823.41201758
 20
6868383.44620783
 10
661823.368510559
 20
6868383.38334435
 10
661823.320741718
 20
6868383.32365502
 10
661823.268941849
 20
6868383.26742823
 10
661823.213361221
 20
6868383.21493564
 10
661823.154268371
 20
6868383.16643087
 10
661816.80078616
 20
6868378.31088931
 10
661817.377786114
 20
6868377.52965156
 10
661816.38674225
 20
6868378.01514938
 10
661814.520052452
 20
6868376.59563102
 10
661814.520052452
 20
6868376.59563102
 10
661813.899072456
 20
6868376.15649064
 10
661813.249190972
 20
6868375.76137738
 10
661812.573524142
 20
6868375.4121858
 10
661811.875311751
 20
6868375.11059025
 10
661811.157901686
 20
6868374.85803685
 10
661810.424733885
 20
6868374.65573659
 10
661809.679323847
 20
6868374.50465949
 10
661808.925245768
 20
6868374.40552994
 10
661808.166115409
 20
6868374.35882328
 10
661807.405572754
 20
6868374.36476345
 10
661807.404165924
 20
6868374.3648232
 10
661807.404165924
 20
6868374.3648232
 10
661807.344869312
 20
6868374.36938029
 10
661807.28602388
 20
6868374.37798671
 10
661807.227905828
 20
6868374.39060207
 10
661807.170787939
 20
6868374.40716716
 10
661807.114938303
 20
6868374.42760422
 10
661807.060619058
 20
6868374.45181734
 10
661807.008085157
 20
6868374.47969286
 10
661806.957583175
 20
6868374.51109994
 10
661806.90935015
 20
6868374.54589119
 10
661806.863612467
 20
6868374.58390329
 10
661806.820584804
 20
6868374.62495783
 10
661806.780469115
 20
6868374.66886212
 10
661806.74345369
 20
6868374.71541009
 10
661806.709712263
 20
6868374.76438327
 10
661806.679403204
 20
6868374.81555177
 10
661806.652668773
 20
6868374.86867545
 10
661806.629634452
 20
6868374.92350497
 10
661806.610408354
 20
6868374.97978296
 10
661806.59508072
 20
6868375.03724529
 10
661806.583723492
 20
6868375.09562224
 10
661806.576389976
 20
6868375.15463982
  0
LWPOLYLINE
  5
20009
100
AcDbEntity
  8
0
100
AcDbPolyline
 70
0
 90
7
 10
661851.634303209
 20
6868396.34785378
 10
661851.485820728
 20
6868393.11392919
 10
661851.90972212
 20
6868392.74531575
 10
661852.522240853
 20
6868392.7454778
 10
661853.128735957
 20
6868393.0572268
 10
661853.593452029
 20
6868393.93005733
 10
661853.761015024
 20
6868394.16031397
  0
LWPOLYLINE
  5
2000A
100
AcDbEntity
  8
0
100
AcDbPolyline
 70
0
 90
2
 10
661855.458576976
 20
6868394.53801878
 10
661854.585710049
 20
6868394.57884455
  0
LWPOLYLINE
  5
2000B
100
AcDbEntity
  8
0
100
AcDbPolyline
 70
0
 90
2
 10
661855.458576974
 20
6868394.53801878
 10
661854.554843492
 20
6868394.4053421
  0
LWPOLYLINE
  5
2000C
100
AcDbEntity
  8
0
100
AcDbPolyline
 70
0
 90
6
 10
661873.866418379
 20
6868387.31898543
 10
661875.055020404
 20
6868389.47015044
 10
661875.963744323
 20
6868389.80430976
 10
661880.294314997
 20
6868389.04414006
 10
661884.634620158
 20
6868388.43418443
 10
661884.81068986
 20
6868389.09972612
  0
LWPOLYLINE
  5
2000D
100
AcDbEntity
  8
0
100
AcDbPolyline
 70
0
 90
12
 10
661988.288399149
 20
6868185.52488988
 10
661989.052565441
 20
6868185.2720734
 10
661990.606381572
 20
6868185.52171288
 10
661992.22943964
 20
6868186.30726752
 10
661993.691300104
 20
6868187.47326901
 10
661995.613687832
 20
6868188.28299163
 10
661997.54369508
 20
6868188.35557382
 10
662001.385391631
 20
6868186.84578805
 10
662003.35762971
 20
6868186.6336004
 10
662005.082345191
 20
6868187.21776967
 10
662006.356146483
 20
6868188.48768648
 10
662007.474820174
 20
6868189.59274403
  0
LWPOLYLINE
  5
2000E
100
AcDbEntity
  8
0
100
AcDbPolyline
 70
0
 90
13
 10
662046.533536609
 20
6868341.45253496
 10
662048.313877376
 20
6868340.71915078
 10
662053.349052352
 20
6868340.58401254
 10
662059.479528062
 20
6868339.37080954
 10
662061.083915957
 20
6868338.65804342
 10
662062.139825787
 20
6868338.51508283
 10
662063.012166315
 20
6868338.30271175
 10
662066.247714029
 20
6868335.22119081
 10
662068.818608607
 20
6868334.52729864
 10
662072.169573146
 20
6868335.15087115
 10
662074.339274333
 20
6868336.31540597
 10
662077.881149596
 20
6868335.98379183
 10
662078.696487569
 20
6868335.40678366
  0
LWPOLYLINE
  5
2000F
100
AcDbEntity
  8
0
100
AcDbPolyline
 70
0
 90
8
 10
662059.307195679
 20
6868323.83664078
 10
662058.864401577
 20
6868325.38640692
 10
662056.801039167
 20
6868326.57998577
 10
662054.215230108
 20
6868327.01302497
 10
662052.002096287
 20
6868327.53480825
 10
662048.590140477
 20
6868327.01877311
 10
662047.137917153
 20
6868326.60817622
 10
662043.806685345
 20
6868326.99148397
  0
LWPOLYLINE
  5
20010
100
AcDbEntity
  8
0
100
AcDbPolyline
 70
0
 90
3
 10
662056.48536813
 20
6868308.69094604
 10
662045.224569019
 20
6868312.06648751
 10
662041.145883251
 20
6868312.60108009
  0
LWPOLYLINE
  5
20011
100
AcDbEntity
  8
0
100
AcDbPolyline
 70
0
 90
73
 10
662040.626882454
 20
6868360.07221955
 10
662041.059498423
 20
6868359.93969834
 10
662048.239293252
 20
6868357.79827981
 10
662049.523834381
 20
6868357.03547713
 10
662049.438498151
 20
6868354.10008643
 10
662048.647136411
 20
6868348.84295447
 10
662047.750189538
 20
6868345.27624878
 10
662046.85637111
 20
6868341.86872794
 10
662046.69700517
 20
6868341.6946295
 10
662046.533536609
 20
6868341.45253496
 10
662046.82634063
 20
6868340.11951236
 10
662047.287535661
 20
6868338.37615771
 10
662047.565626722
 20
6868333.65394347
 10
662047.386725244
 20
6868329.09930709
 10
662047.386753617
 20
6868329.09925802
 10
662047.145102004
 20
6868326.75302155
 10
662043.806685345
 20
6868326.99148397
 10
662047.162051529
 20
6868326.46897159
 10
662048.277347106
 20
6868325.64839162
 10
662047.38579842
 20
6868320.50108249
 10
662046.433723814
 20
6868317.09616851
 10
662045.241153298
 20
6868312.2809223
 10
662041.145883256
 20
6868312.60108009
 10
662045.07145122
 20
6868311.86743274
 10
662044.549770004
 20
6868307.16362364
 10
662043.458483349
 20
6868301.95998554
 10
662042.748963902
 20
6868296.64820093
 10
662041.925655192
 20
6868295.9837871
 10
662042.753684611
 20
6868294.74177707
 10
662041.836160561
 20
6868290.31041808
 10
662040.86128833
 20
6868286.31776132
 10
662039.434065328
 20
6868282.8659245
 10
662039.57240118
 20
6868279.78228042
 10
662036.622427695
 20
6868280.11457493
 10
662039.447101868
 20
6868279.06139385
 10
662039.130968823
 20
6868277.85302118
 10
662038.315224183
 20
6868274.15197109
 10
662036.65272278
 20
6868270.99877628
 10
662036.311900576
 20
6868268.7270931
 10
662035.174322316
 20
6868264.71845414
 10
662034.187427896
 20
6868264.53680957
 10
662033.546182611
 20
6868264.79270603
 10
662033.285986992
 20
6868264.29047744
 10
662032.112521078
 20
6868263.97327735
 10
662028.343414206
 20
6868262.66912832
 10
662025.108466435
 20
6868261.91712172
 10
662021.562555322
 20
6868261.12672173
 10
662019.514280673
 20
6868260.89816905
 10
662019.167338482
 20
6868260.40662985
 10
662018.936667966
 20
6868259.9373197
 10
662018.943109912
 20
6868257.73011987
 10
662018.19319306
 20
6868254.59627847
 10
662017.354233201
 20
6868250.71781523
 10
662016.76313677
 20
6868246.50718986
 10
662016.004683193
 20
6868243.26015333
 10
662015.865702434
 20
6868242.6947363
 10
662015.739603007
 20
6868242.15485185
 10
662015.623380454
 20
6868241.69213691
 10
662015.433638179
 20
6868239.50039647
 10
662015.080197491
 20
6868236.25428097
 10
662014.557161516
 20
6868232.46434269
 10
662013.9665451
 20
6868229.4200718
 10
662013.290231083
 20
6868225.8166664
 10
662012.74114317
 20
6868224.65181278
 10
662012.32161904
 20
6868223.88813238
 10
662012.261637756
 20
6868223.30284882
 10
662012.400082256
 20
6868222.11129819
 10
662011.81907996
 20
6868218.98466329
 10
662011.177305914
 20
6868215.3352846
 10
662010.46147687
 20
6868211.82852732
 10
662009.839004769
 20
6868209.34311223
 10
662009.516684879
 20
6868208.72647433
 10
662009.272995033
 20
6868208.41706067
  0
LWPOLYLINE
  5
20012
100
AcDbEntity
  8
0
100
AcDbPolyline
 70
0
 90
2
 10
662033.546182611
 20
6868264.79270603
 10
662029.799095106
 20
6868245.3129206
  0
LWPOLYLINE
  5
20013
100
AcDbEntity
  8
0
100
AcDbPolyline
 70
0
 90
8
 10
661622.364781723
 20
6867945.86387115
 10
661635.427242539
 20
6867979.25509006
 10
661653.242399029
 20
6868024.45092692
 10
661667.525084047
 20
6868059.70143653
 10
661684.034743115
 20
6868102.71941966
 10
661700.30244032
 20
6868138.7191861
 10
661700.487088337
 20
6868173.17460819
 10
661727.581615484
 20
6868199.48246431
  0
LWPOLYLINE
  5
20014
100
AcDbEntity
  8
0
100
AcDbPolyline
 70
0
 90
126
 10
661578.760812893
 20
6867965.62547106
 10
661578.756220438
 20
6867965.55919928
 10
661578.756244495
 20
6867965.49276858
 10
661578.760884948
 20
6867965.42650014
 10
661578.770119358
 20
6867965.36071439
 10
661578.783903078
 20
6867965.29572941
 10
661578.783903079
 20
6867965.29572941
 10
661579.376355343
 20
6867964.76130018
 10
661585.085677134
 20
6867960.38537669
 10
661589.944366143
 20
6867956.74570734
 10
661594.526722215
 20
6867952.97721247
 10
661594.895114557
 20
6867953.22590116
 10
661594.936383134
 20
6867952.70686577
 10
661599.600316765
 20
6867950.58843303
 10
661599.600316765
 20
6867950.58843303
 10
661600.105122224
 20
6867950.37904113
 10
661600.622693641
 20
6867950.20356081
 10
661601.150755781
 20
6867950.06276346
 10
661601.686987289
 20
6867949.95726803
 10
661602.229030901
 20
6867949.88753827
 10
661602.774503802
 20
6867949.85388073
 10
661603.321008101
 20
6867949.85644335
 10
661603.866141374
 20
6867949.89521487
 10
661604.407507223
 20
6867949.97002485
 10
661604.942725813
 20
6867950.08054443
 10
661605.469444331
 20
6867950.22628776
 10
661605.469444331
 20
6867950.22628776
 10
661605.964430625
 20
6867950.39779028
 10
661606.448068823
 20
6867950.5990827
 10
661606.918567974
 20
6867950.82941962
 10
661607.374185779
 20
6867951.08794808
 10
661607.813235045
 20
6867951.37371072
 10
661608.234089937
 20
6867951.68564935
 10
661608.234089937
 20
6867951.68564935
 10
661608.384111697
 20
6867951.79641886
 10
661608.540965333
 20
6867951.89728189
 10
661608.703997689
 20
6867951.98781843
 10
661608.872529878
 20
6867952.06765147
 10
661609.045860114
 20
6867952.13644858
 10
661609.22326663
 20
6867952.19392328
 10
661609.404010684
 20
6867952.23983624
 10
661609.587339637
 20
6867952.27399628
 10
661609.772490088
 20
6867952.29626115
 10
661609.958691046
 20
6867952.30653813
 10
661610.145167152
 20
6867952.30478443
 10
661610.331141896
 20
6867952.29100735
 10
661610.515840859
 20
6867952.26526426
 10
661610.515840859
 20
6867952.26526426
 10
661610.591526007
 20
6867952.254916
 10
661610.667748298
 20
6867952.24986721
 10
661610.744137121
 20
6867952.25014242
 10
661610.820321055
 20
6867952.2557403
 10
661610.895929674
 20
6867952.26663363
 10
661610.970595352
 20
6867952.28276944
 10
661611.043955047
 20
6867952.30406929
 10
661611.115652064
 20
6867952.33042959
 10
661611.185337797
 20
6867952.36172219
 10
661611.252673415
 20
6867952.39779493
 10
661611.317331518
 20
6867952.43847241
 10
661611.378997721
 20
6867952.48355686
 10
661611.437372189
 20
6867952.53282906
 10
661611.492171091
 20
6867952.58604943
 10
661611.543127981
 20
6867952.64295922
 10
661611.589995094
 20
6867952.7032817
 10
661611.632544552
 20
6867952.76672358
 10
661611.670569468
 20
6867952.83297638
 10
661611.703884956
 20
6867952.90171797
 10
661611.732329029
 20
6867952.97261411
 10
661611.755763383
 20
6867953.04532009
 10
661611.774074076
 20
6867953.11948238
 10
661611.774074076
 20
6867953.11948238
 10
661611.790001106
 20
6867953.18404115
 10
661611.810365159
 20
6867953.24734051
 10
661611.835068256
 20
6867953.30907592
 10
661611.863991544
 20
6867953.36895035
 10
661611.896995863
 20
6867953.42667572
 10
661611.933922419
 20
6867953.48197431
 10
661611.974593546
 20
6867953.53458004
 10
661612.018813563
 20
6867953.58423983
 10
661612.066369714
 20
6867953.63071473
 10
661612.117033191
 20
6867953.67378114
 10
661612.170560235
 20
6867953.71323187
 10
661612.226693311
 20
6867953.74887708
 10
661612.285162346
 20
6867953.7805453
 10
661612.345686026
 20
6867953.80808415
 10
661612.407973153
 20
6867953.83136113
 10
661612.471724043
 20
6867953.85026425
 10
661612.536631971
 20
6867953.86470256
 10
661612.602384644
 20
6867953.8746066
 10
661612.668665706
 20
6867953.87992871
 10
661612.735156257
 20
6867953.88064328
 10
661612.80153639
 20
6867953.87674689
 10
661612.867486729
 20
6867953.86825827
 10
661612.932689967
 20
6867953.85521826
 10
661612.99683239
 20
6867953.83768961
 10
661613.059605388
 20
6867953.81575665
 10
661616.372140168
 20
6867952.52778231
 10
661620.163377875
 20
6867950.95284241
 10
661621.572484179
 20
6867950.53575439
 10
661621.934480747
 20
6867950.4208808
 10
661621.934480747
 20
6867950.4208808
 10
661622.00707473
 20
6867950.39510264
 10
661622.077753708
 20
6867950.36446146
 10
661622.146192343
 20
6867950.3290983
 10
661622.21207561
 20
6867950.28917594
 10
661622.275100247
 20
6867950.24487813
 10
661622.334976149
 20
6867950.1964088
 10
661622.391427705
 20
6867950.14399104
 10
661622.444195067
 20
6867950.08786613
 10
661622.493035346
 20
6867950.02829242
 10
661622.537723728
 20
6867949.96554413
 10
661622.578054511
 20
6867949.89991008
 10
661622.613842052
 20
6867949.8316924
 10
661622.644921618
 20
6867949.7612051
 10
661622.671150151
 20
6867949.68877262
 10
661622.692406919
 20
6867949.61472838
 10
661622.708594077
 20
6867949.5394132
 10
661622.719637114
 20
6867949.46317377
 10
661622.7254852
 20
6867949.38636101
 10
661622.726111415
 20
6867949.3093285
 10
661622.721512877
 20
6867949.23243082
 10
661622.711710754
 20
6867949.15602193
 10
661622.696750164
 20
6867949.08045355
 10
661622.676699972
 20
6867949.00607351
 10
661621.885443866
 20
6867946.42287876
 10
661622.364781723
 20
6867945.86387115
  0
LWPOLYLINE
  5
20015
100
AcDbEntity
  8
0
100
AcDbPolyline
 70
0
 90
2
 10
661555.46570837
 20
6867972.71363056
 10
661560.252633305
 20
6867981.70963181
  0
LWPOLYLINE
  5
20016
100
AcDbEntity
  8
0
100
AcDbPolyline
 70
0
 90
4
 10
661560.252633305
 20
6867981.70963181
 10
661560.270977617
 20
6867981.74410602
 10
661560.281392115
 20
6867981.68518465
 10
661560.252633305
 20
6867981.70963181
  0
LWPOLYLINE
  5
20017
100
AcDbEntity
  8
0
100
AcDbPolyline
 70
0
 90
3
 10
661560.252633305
 20
6867981.70963181
 10
661556.760343374
 20
6867984.67834168
 10
661552.973083386
 20
6867987.87016684
  0
LWPOLYLINE
  5
20018
100
AcDbEntity
  8
0
100
AcDbPolyline
 70
0
 90
55
 10
661547.825742641
 20
6867977.55701139
 10
661548.111183079
 20
6867977.31551619
 10
661548.111183079
 20
6867977.31551619
 10
661554.470434707
 20
6867971.90828489
 10
661561.256519602
 20
6867966.16925483
 10
661563.775113684
 20
6867964.15088875
 10
661563.775113685
 20
6867964.15088875
 10
661566.638330594
 20
6867963.22638896
 10
661566.73485659
 20
6867963.25252436
 10
661569.330314093
 20
6867965.09048752
 10
661572.372586276
 20
6867968.64976916
 10
661572.429995589
 20
6867968.71243279
 10
661572.491579909
 20
6867968.77099841
 10
661572.557047416
 20
6867968.82518849
 10
661572.626087889
 20
6867968.87474626
 10
661572.698374176
 20
6867968.91943689
 10
661572.773563747
 20
6867968.95904861
 10
661572.851300312
 20
6867968.99339371
 10
661572.931215514
 20
6867969.02230946
 10
661573.012930671
 20
6867969.04565882
 10
661573.096058571
 20
6867969.06333116
 10
661573.180205311
 20
6867969.07524275
 10
661573.264972158
 20
6867969.08133713
 10
661573.349957439
 20
6867969.08158543
 10
661573.434758449
 20
6867969.07598647
 10
661573.518973355
 20
6867969.06456677
 10
661573.6022031
 20
6867969.04738047
 10
661573.684053298
 20
6867969.02450898
 10
661573.764136097
 20
6867968.9960607
 10
661573.842072022
 20
6867968.96217041
 10
661573.91749177
 20
6867968.92299872
 10
661573.990037962
 20
6867968.87873125
 10
661574.059366835
 20
6867968.82957774
 10
661576.694013148
 20
6867966.82188268
 10
661578.07017587
 20
6867965.76372505
 10
661578.091919346
 20
6867965.74817409
 10
661578.114687292
 20
6867965.73416582
 10
661578.138370445
 20
6867965.72176745
 10
661578.162855149
 20
6867965.7110385
 10
661578.188023902
 20
6867965.70203045
 10
661578.213755919
 20
6867965.69478652
 10
661578.239927712
 20
6867965.68934149
 10
661578.266413684
 20
6867965.68572148
 10
661578.293086727
 20
6867965.68394387
 10
661578.319818838
 20
6867965.68401718
 10
661578.34648173
 20
6867965.68594107
 10
661578.372947447
 20
6867965.6897063
 10
661578.399088981
 20
6867965.6952948
 10
661578.424780878
 20
6867965.70267976
 10
661578.449899844
 20
6867965.71182572
 10
661578.474325331
 20
6867965.72268881
 10
661578.497940123
 20
6867965.73521689
 10
661578.520630892
 20
6867965.74934983
 10
661578.542288746
 20
6867965.76501982
 10
661578.562809747
 20
6867965.78215165
  0
LWPOLYLINE
  5
20019
100
AcDbEntity
  8
0
100
AcDbPolyline
 70
0
 90
28
 10
661812.927072773
 20
6868185.44533312
 10
661807.784899689
 20
6868186.3075426
 10
661807.4152247
 20
6868185.50913457
 10
661807.219123423
 20
6868186.42970758
 10
661800.496223288
 20
6868187.72270311
 10
661793.272977293
 20
6868189.05607729
 10
661792.782294287
 20
6868189.06172604
 10
661787.722422041
 20
6868190.0101485
 10
661784.508059569
 20
6868190.49972307
 10
661784.147572997
 20
6868189.83525553
 10
661784.117888001
 20
6868190.44577121
 10
661779.384121381
 20
6868191.5136297
 10
661773.973973213
 20
6868192.60319602
 10
661773.620326155
 20
6868191.75371612
 10
661773.649058803
 20
6868192.75620764
 10
661768.784424745
 20
6868194.07737027
 10
661759.103522692
 20
6868196.60633181
 10
661756.529250159
 20
6868197.34894241
 10
661755.984387879
 20
6868195.16369508
 10
661756.068644841
 20
6868197.63573939
 10
661750.273586461
 20
6868198.44930774
 10
661743.967665154
 20
6868199.46790712
 10
661743.554180192
 20
6868199.65709091
 10
661740.235152591
 20
6868199.8167381
 10
661736.288249929
 20
6868200.49837422
 10
661733.54628263
 20
6868200.37675825
 10
661728.655437359
 20
6868199.74688489
 10
661727.581615484
 20
6868199.48246431
  0
LWPOLYLINE
  5
2001A
100
AcDbEntity
  8
0
100
AcDbPolyline
 70
0
 90
5
 10
661784.147572997
 20
6868189.83525553
 10
661784.508059569
 20
6868190.49972307
 10
661787.722422041
 20
6868190.0101485
 10
661792.782294287
 20
6868189.06172604
 10
661792.865464056
 20
6868188.26273875
  0
LWPOLYLINE
  5
2001B
100
AcDbEntity
  8
0
100
AcDbPolyline
 70
0
 90
5
 10
661755.984387879
 20
6868195.16369508
 10
661756.068644841
 20
6868197.63573939
 10
661750.273586461
 20
6868198.44930774
 10
661743.967665154
 20
6868199.46790712
 10
661743.363047963
 20
6868197.70562772
  0
LWPOLYLINE
  5
2001C
100
AcDbEntity
  8
0
100
AcDbPolyline
 70
0
 90
43
 10
661955.076057396
 20
6868157.72958957
 10
661954.854628266
 20
6868158.36898
 10
661949.788515828
 20
6868159.56528401
 10
661943.733227656
 20
6868160.60740848
 10
661943.228928029
 20
6868159.97316044
 10
661943.381713164
 20
6868160.71035869
 10
661936.82080912
 20
6868161.95801943
 10
661928.124596164
 20
6868163.569097
 10
661927.65666028
 20
6868162.89179791
 10
661927.772745643
 20
6868163.62089697
 10
661921.041431583
 20
6868164.99832158
 10
661915.659676001
 20
6868165.93614659
 10
661915.155699726
 20
6868165.2029281
 10
661915.253735004
 20
6868166.10339843
 10
661908.796575701
 20
6868167.44659903
 10
661903.035108862
 20
6868168.34152706
 10
661902.488726719
 20
6868167.66178092
 10
661902.532116012
 20
6868168.44455021
 10
661896.546058547
 20
6868169.5344565
 10
661890.276854933
 20
6868170.53486163
 10
661890.064455444
 20
6868169.8914678
 10
661889.797537442
 20
6868170.65274239
 10
661884.665424298
 20
6868171.48794299
 10
661880.371829574
 20
6868172.39769131
 10
661879.815317094
 20
6868171.7382159
 10
661879.854351887
 20
6868172.30453843
 10
661874.369312584
 20
6868173.43564893
 10
661868.288041033
 20
6868174.60905808
 10
661867.876759462
 20
6868174.05816194
 10
661867.760399182
 20
6868174.19830391
 10
661858.076084194
 20
6868175.75594717
 10
661857.790343226
 20
6868175.92185489
 10
661857.574314195
 20
6868176.04430465
 10
661849.673534678
 20
6868178.04465851
 10
661849.244206744
 20
6868177.5361398
 10
661849.222158098
 20
6868178.17570284
 10
661842.12373512
 20
6868179.58269904
 10
661837.261519435
 20
6868180.18152383
 10
661836.767157738
 20
6868179.83319663
 10
661836.850064749
 20
6868180.21611523
 10
661829.815697123
 20
6868181.92517657
 10
661820.559443373
 20
6868183.98214237
 10
661812.927072773
 20
6868185.44533312
  0
LWPOLYLINE
  5
2001D
100
AcDbEntity
  8
0
100
AcDbPolyline
 70
0
 90
7
 10
661555.46570837
 20
6867972.71363056
 10
661556.279295722
 20
6867972.03722057
 10
661560.585526137
 20
6867968.17712184
 10
661564.073221175
 20
6867965.28733296
 10
661564.869683762
 20
6867964.03063178
 10
661565.601693614
 20
6867963.65140902
 10
661566.638330593
 20
6867963.22638896
  0
LWPOLYLINE
  5
2001E
100
AcDbEntity
  8
0
100
AcDbPolyline
 70
0
 90
7
 10
661527.396126339
 20
6867983.42806546
 10
661534.106879223
 20
6867977.77433213
 10
661540.793322713
 20
6867972.11721547
 10
661547.528938438
 20
6867966.46823119
 10
661551.039068288
 20
6867963.54950332
 10
661551.000947426
 20
6867963.46964436
 10
661555.46570837
 20
6867972.71363056
  0
LWPOLYLINE
  5
2001F
100
AcDbEntity
  8
0
100
AcDbPolyline
 70
0
 90
4
 10
661821.01371808
 20
6868035.71697792
 10
661816.080976669
 20
6867996.22113957
 10
661811.282949472
 20
6867957.72951769
 10
661807.495540563
 20
6867941.80449579
  0
LWPOLYLINE
  5
20020
100
AcDbEntity
  8
0
100
AcDbPolyline
 70
0
 90
4
 10
661874.519881901
 20
6868029.1139137
 10
661870.309137933
 20
6867994.3477412
 10
661866.397371262
 20
6867961.52288179
 10
661865.591301607
 20
6867945.25921288
  0
LWPOLYLINE
  5
20021
100
AcDbEntity
  8
0
100
AcDbPolyline
 70
0
 90
5
 10
661887.745448119
 20
6867903.32141858
 10
661888.817407376
 20
6867902.74053714
 10
661889.709985049
 20
6867901.81686578
 10
661894.813624583
 20
6867900.96239998
 10
661895.688748985
 20
6867900.66706348
  0
LWPOLYLINE
  5
20022
100
AcDbEntity
  8
0
100
AcDbPolyline
 70
0
 90
11
 10
661903.729199586
 20
6867909.63706846
 10
661903.880984111
 20
6867909.90939655
 10
661904.41578607
 20
6867911.22047913
 10
661903.9435486
 20
6867918.09666377
 10
661904.965919686
 20
6867923.54721354
 10
661905.295375759
 20
6867925.51055523
 10
661905.095863167
 20
6867923.35501401
 10
661904.132260566
 20
6867917.83704142
 10
661904.543981329
 20
6867911.02397664
 10
661903.948199975
 20
6867909.69849815
 10
661903.90096262
 20
6867909.61192805
  0
LWPOLYLINE
  5
20023
100
AcDbEntity
  8
0
100
AcDbPolyline
 70
0
 90
2
 10
661866.61701184
 20
6867944.36987461
 10
661865.591301607
 20
6867945.25921288
  0
LWPOLYLINE
  5
20024
100
AcDbEntity
  8
0
100
AcDbPolyline
 70
0
 90
2
 10
661807.229431953
 20
6867940.54094855
 10
661807.495540563
 20
6867941.80449579
  0
LWPOLYLINE
  5
20025
100
AcDbEntity
  8
0
100
AcDbPolyline
 70
0
 90
38
 10
661714.04202898
 20
6868103.82191088
 10
661714.733761983
 20
6868103.42883901
 10
661716.662136001
 20
6868102.56021688
 10
661719.899009242
 20
6868101.33021491
 10
661723.018547493
 20
6868100.57137957
 10
661726.423197063
 20
6868100.14241613
 10
661728.639370628
 20
6868099.86810165
 10
661729.241454594
 20
6868100.80174707
 10
661729.14552856
 20
6868099.91071849
 10
661731.895692907
 20
6868099.04776096
 10
661734.670715132
 20
6868098.26748664
 10
661738.018125555
 20
6868097.8845684
 10
661740.066033141
 20
6868097.53369025
 10
661740.690260666
 20
6868097.99605541
 10
661741.10724695
 20
6868098.49182102
 10
661740.980067922
 20
6868097.75785094
 10
661740.749604396
 20
6868097.20629719
 10
661742.362718424
 20
6868097.06172944
 10
661743.946132181
 20
6868096.93085448
 10
661746.668288528
 20
6868096.1548275
 10
661749.57268147
 20
6868095.92860832
 10
661751.675566986
 20
6868095.4810187
 10
661752.407621579
 20
6868095.82202215
 10
661752.907753957
 20
6868096.02499857
 10
661753.058094115
 20
6868095.64888021
 10
661754.486204555
 20
6868094.9688885
 10
661755.931263171
 20
6868094.78308256
 10
661758.269729642
 20
6868094.14363267
 10
661761.769916295
 20
6868093.54425235
 10
661762.839046885
 20
6868094.05814332
 10
661763.736971051
 20
6868094.41142816
 10
661763.779462409
 20
6868093.53913048
 10
661765.055993485
 20
6868093.14000376
 10
661767.897879306
 20
6868092.49423004
 10
661770.159025097
 20
6868091.7038378
 10
661772.834103356
 20
6868091.04953079
 10
661773.798879553
 20
6868091.46480316
 10
661774.630648588
 20
6868092.29129329
  0
LWPOLYLINE
  5
20026
100
AcDbEntity
  8
0
100
AcDbPolyline
 70
0
 90
150
 10
661790.608314189
 20
6868102.33509974
 10
661790.178744941
 20
6868102.27020998
 10
661789.088111525
 20
6868102.37308407
 10
661786.011940977
 20
6868102.84932739
 10
661782.546469549
 20
6868103.61139895
 10
661781.312537965
 20
6868103.89232666
 10
661780.880680768
 20
6868104.21763228
 10
661780.41344939
 20
6868104.09771215
 10
661778.760670138
 20
6868104.45612683
 10
661776.245889105
 20
6868104.72910537
 10
661770.965300683
 20
6868105.5950894
 10
661768.970541329
 20
6868105.99455291
 10
661768.67396435
 20
6868106.50094499
 10
661768.264603682
 20
6868106.15389382
 10
661766.925361323
 20
6868106.33458493
 10
661762.619453242
 20
6868107.30921845
 10
661758.683228015
 20
6868108.13187181
 10
661756.710797746
 20
6868108.41589992
 10
661756.164747942
 20
6868108.87584743
 10
661755.691223206
 20
6868108.68358991
 10
661753.820504342
 20
6868108.84400287
 10
661749.852592305
 20
6868109.62936063
 10
661746.149939727
 20
6868110.49320307
 10
661744.132071305
 20
6868110.84279935
 10
661743.781372933
 20
6868111.16443264
 10
661743.394149368
 20
6868110.96230714
 10
661741.075411593
 20
6868111.49807366
 10
661737.529400496
 20
6868111.84361566
 10
661733.724429838
 20
6868112.63833632
 10
661731.720542723
 20
6868113.12090085
 10
661731.11841546
 20
6868113.57460981
 10
661730.716346726
 20
6868113.36612074
 10
661729.993926176
 20
6868113.33415831
 10
661727.274524221
 20
6868113.93662124
 10
661722.625996514
 20
6868114.87387177
 10
661720.135410223
 20
6868115.45852258
 10
661718.251021262
 20
6868116.05608264
 10
661717.412496932
 20
6868116.33382558
 10
661716.790702439
 20
6868116.26554497
 10
661716.446374539
 20
6868115.90186856
 10
661715.732844702
 20
6868115.24855388
 10
661714.864270013
 20
6868112.83285063
 10
661714.393063817
 20
6868109.01179475
 10
661713.936558544
 20
6868106.64743964
 10
661713.633514589
 20
6868105.12220155
 10
661713.384495859
 20
6868104.18684144
 10
661714.04202898
 20
6868103.82191088
 10
661713.417223505
 20
6868103.40395011
 10
661713.146642833
 20
6868102.03012489
 10
661712.941237944
 20
6868099.76517842
 10
661712.038896962
 20
6868097.04365349
 10
661711.879408882
 20
6868094.45116394
 10
661711.715715105
 20
6868092.88517487
 10
661711.442021582
 20
6868091.60517288
 10
661711.143419384
 20
6868090.64777489
 10
661710.766436493
 20
6868090.52034674
 10
661710.283106965
 20
6868089.90303156
 10
661708.934046574
 20
6868087.14967411
 10
661708.124244651
 20
6868084.16107619
 10
661707.64612603
 20
6868082.78050346
 10
661705.424752011
 20
6868082.78667573
 10
661701.242031031
 20
6868083.79723712
 10
661700.182139338
 20
6868083.87916954
 10
661700.684243099
 20
6868083.72391772
 10
661701.105860844
 20
6868083.24173026
 10
661699.856867991
 20
6868081.6729988
 10
661699.502507026
 20
6868078.61183239
 10
661698.966661515
 20
6868075.53742652
 10
661698.57414251
 20
6868072.85733469
 10
661698.278108827
 20
6868072.45115279
 10
661697.873762715
 20
6868071.62675166
 10
661697.201688984
 20
6868068.88912124
 10
661696.713096063
 20
6868065.4894141
 10
661695.908100175
 20
6868061.72609537
 10
661695.900762237
 20
6868061.13679572
 10
661695.785660296
 20
6868060.52969803
 10
661696.003729342
 20
6868060.03422862
 10
661695.416434461
 20
6868058.12395066
 10
661694.536432227
 20
6868053.74431848
 10
661693.555817083
 20
6868050.82426167
 10
661693.59040786
 20
6868049.25628573
 10
661693.950942108
 20
6868048.72674803
 10
661693.606258825
 20
6868048.2823042
 10
661692.923530436
 20
6868046.0913444
 10
661692.531064382
 20
6868043.53009028
 10
661691.566294971
 20
6868038.85871704
 10
661691.190092081
 20
6868037.34805193
 10
661691.456315809
 20
6868036.8266967
 10
661691.018573405
 20
6868036.65874089
 10
661690.730379422
 20
6868035.65337994
 10
661690.094444311
 20
6868031.11513597
 10
661689.236059093
 20
6868026.25025002
 10
661689.281034015
 20
6868024.60225107
 10
661689.422125169
 20
6868024.03889439
 10
661689.037017787
 20
6868023.67297236
 10
661688.634409609
 20
6868021.13471718
 10
661687.68567115
 20
6868017.8048076
 10
661686.443628401
 20
6868016.07890708
 10
661685.695443489
 20
6868015.62695033
 10
661684.962564524
 20
6868016.16607135
 10
661685.329091658
 20
6868015.52096523
 10
661685.508666512
 20
6868014.28321115
 10
661685.851229996
 20
6868011.15040765
 10
661685.582883854
 20
6868007.18524224
 10
661685.499592733
 20
6868004.89259438
 10
661686.345680641
 20
6868003.07161627
 10
661686.276000829
 20
6868002.47100298
 10
661686.439325544
 20
6868001.58964864
 10
661686.572961171
 20
6867998.67358867
 10
661685.544640045
 20
6867994.0033203
 10
661685.116995135
 20
6867992.22353406
 10
661684.917609482
 20
6867991.76043196
 10
661685.13999913
 20
6867991.35349009
 10
661685.015921683
 20
6867990.47231456
 10
661684.164136942
 20
6867985.74960347
 10
661683.602375046
 20
6867981.29358268
 10
661683.380168909
 20
6867980.58471742
 10
661682.829480869
 20
6867980.17820067
 10
661683.247101461
 20
6867979.83760063
 10
661683.084433224
 20
6867978.78776569
 10
661682.328539165
 20
6867973.73650756
 10
661681.517206058
 20
6867969.4450808
 10
661681.143202208
 20
6867968.34445332
 10
661680.572862394
 20
6867968.16023879
 10
661680.836099003
 20
6867967.69946518
 10
661680.974949329
 20
6867966.48047628
 10
661680.512548306
 20
6867963.79368732
 10
661679.274123325
 20
6867960.57411792
 10
661678.874069748
 20
6867957.06825338
 10
661678.381935457
 20
6867956.37797652
 10
661678.497306222
 20
6867955.55468186
 10
661677.906184313
 20
6867952.99592516
 10
661677.47310386
 20
6867950.71509943
 10
661676.535250191
 20
6867946.60286234
 10
661676.287976395
 20
6867944.9619593
 10
661676.178963256
 20
6867944.55853708
 10
661676.215502815
 20
6867944.03034111
 10
661675.793385884
 20
6867942.1367345
 10
661675.097745872
 20
6867937.46527764
 10
661674.768788072
 20
6867936.69749093
 10
661674.331846194
 20
6867934.43536704
 10
661674.064510214
 20
6867934.19008162
 10
661674.039397343
 20
6867933.46020103
 10
661673.988104739
 20
6867932.66951758
 10
661674.429825048
 20
6867931.64982757
 10
661674.948256939
 20
6867931.39607208
 10
661679.710279469
 20
6867931.63404014
 10
661682.926135877
 20
6867931.88579546
 10
661685.741390244
 20
6867931.92019143
 10
661686.103605661
 20
6867933.02336329
  0
LWPOLYLINE
  5
20027
100
AcDbEntity
  8
0
100
AcDbPolyline
 70
0
 90
2
 10
661705.160074346
 20
6868118.5023305
 10
661716.72194863
 20
6868116.19292774
  0
LWPOLYLINE
  5
20028
100
AcDbEntity
  8
0
100
AcDbPolyline
 70
0
 90
50
 10
661711.143419384
 20
6868090.64777489
 10
661711.836822609
 20
6868091.31537035
 10
661713.133689858
 20
6868091.34228733
 10
661715.713193575
 20
6868090.99843581
 10
661720.423402269
 20
6868090.14406469
 10
661724.309302469
 20
6868089.37863004
 10
661726.306392444
 20
6868088.95731399
 10
661726.580183973
 20
6868087.57991764
 10
661727.05658581
 20
6868088.81389506
 10
661728.664644184
 20
6868088.56155111
 10
661732.797180177
 20
6868087.77934951
 10
661736.187107709
 20
6868087.19151816
 10
661738.010979488
 20
6868086.5581036
 10
661738.790371064
 20
6868086.17585911
 10
661738.985295591
 20
6868085.2529729
 10
661739.554372508
 20
6868086.18272155
 10
661741.343972235
 20
6868086.12979618
 10
661742.349087641
 20
6868086.36969977
 10
661743.746373584
 20
6868086.02791222
 10
661747.292780006
 20
6868084.82583721
 10
661749.613433528
 20
6868084.50779875
 10
661750.469673221
 20
6868084.18514218
 10
661750.479882617
 20
6868083.09659954
 10
661751.144508904
 20
6868084.10960537
 10
661753.403552069
 20
6868083.67217921
 10
661757.069062029
 20
6868082.89583515
 10
661759.779961539
 20
6868082.33787685
 10
661760.542728172
 20
6868082.11648645
 10
661760.601410217
 20
6868081.20401061
 10
661761.09974011
 20
6868082.1187088
 10
661762.474129479
 20
6868082.01761382
 10
661765.300489295
 20
6868081.87664343
 10
661768.816067069
 20
6868080.78055084
 10
661771.320305682
 20
6868080.27470132
 10
661771.316304329
 20
6868079.42495664
 10
661772.025723539
 20
6868080.13599599
 10
661773.108476013
 20
6868080.63867237
 10
661776.04770165
 20
6868079.97935026
 10
661776.947541596
 20
6868078.30649784
 10
661779.582937509
 20
6868077.46711065
 10
661781.474976272
 20
6868076.92231836
 10
661783.249928835
 20
6868076.6265665
 10
661783.664885769
 20
6868077.16342459
 10
661783.994201581
 20
6868077.63999342
 10
661784.145828135
 20
6868078.19834327
 10
661784.636093411
 20
6868081.05116964
 10
661785.537812309
 20
6868084.94139803
 10
661786.292112579
 20
6868088.72565983
 10
661786.374246537
 20
6868089.58286337
 10
661786.104614386
 20
6868090.04261473
  0
LWPOLYLINE
  5
20029
100
AcDbEntity
  8
0
100
AcDbPolyline
 70
0
 90
51
 10
661778.658447132
 20
6868049.37072568
 10
661778.490040649
 20
6868048.83653569
 10
661778.141142532
 20
6868047.26752212
 10
661777.495164406
 20
6868043.72379522
 10
661776.91918375
 20
6868040.81264937
 10
661776.235019508
 20
6868037.38699617
 10
661776.078411475
 20
6868035.61520112
 10
661776.014783947
 20
6868035.12414664
 10
661775.837106057
 20
6868034.5786254
 10
661775.132631822
 20
6868031.11259039
 10
661774.496036218
 20
6868027.70930769
 10
661773.62162536
 20
6868023.14175355
 10
661772.854937732
 20
6868018.85199638
 10
661772.204517611
 20
6868015.15607454
 10
661771.501429753
 20
6868011.45886521
 10
661770.972003332
 20
6868009.01201568
 10
661770.974801909
 20
6868008.47295269
 10
661770.776350592
 20
6868008.05863085
 10
661770.650564519
 20
6868006.52124123
 10
661769.810561416
 20
6868002.72340259
 10
661769.129165594
 20
6867998.88484321
 10
661768.357597584
 20
6867994.75821212
 10
661768.096864062
 20
6867993.12057947
 10
661768.023666841
 20
6867992.69653996
 10
661767.920400107
 20
6867992.21680722
 10
661767.491186316
 20
6867989.70188311
 10
661766.671401495
 20
6867985.85090814
 10
661766.027890382
 20
6867982.40812972
 10
661765.248131547
 20
6867978.43263803
 10
661764.814737524
 20
6867976.35931278
 10
661764.837673317
 20
6867975.79327398
 10
661764.603252148
 20
6867975.32902175
 10
661764.282525775
 20
6867973.24496598
 10
661763.59391538
 20
6867969.36739488
 10
661762.948712679
 20
6867966.00251084
 10
661762.489532999
 20
6867963.7570782
 10
661761.904112068
 20
6867960.63728408
 10
661761.778322609
 20
6867959.82594488
 10
661761.759052427
 20
6867959.36355082
 10
661761.545833784
 20
6867958.43977519
 10
661761.299002067
 20
6867957.11349745
 10
661760.762594072
 20
6867954.56221312
 10
661760.274101125
 20
6867951.89834238
 10
661759.493040126
 20
6867948.10732611
 10
661758.54016693
 20
6867943.45173736
 10
661758.622225786
 20
6867941.91111012
 10
661759.213659399
 20
6867940.71343948
 10
661760.011392528
 20
6867939.60225612
 10
661761.018279787
 20
6867938.4275799
 10
661761.90129894
 20
6867938.00347715
 10
661762.301590122
 20
6867937.87478606
  0
LWPOLYLINE
  5
2002A
100
AcDbEntity
  8
0
100
AcDbPolyline
 70
0
 90
8
 10
661783.664885769
 20
6868077.16342459
 10
661783.767598208
 20
6868076.20757324
 10
661783.740262713
 20
6868075.44554869
 10
661783.14363789
 20
6868072.87966132
 10
661782.446558524
 20
6868068.70004975
 10
661781.806444941
 20
6868065.33923682
 10
661781.411441523
 20
6868063.39728861
 10
661781.263947823
 20
6868062.96957524
  0
LWPOLYLINE
  5
2002B
100
AcDbEntity
  8
0
100
AcDbPolyline
 70
0
 90
42
 10
661762.301590122
 20
6867937.87478606
 10
661761.746286321
 20
6867937.98995805
 10
661760.991349403
 20
6867938.30633848
 10
661759.627261205
 20
6867939.39388504
 10
661757.714625823
 20
6867942.2027131
 10
661755.866697851
 20
6867942.54742025
 10
661753.446165207
 20
6867942.77933422
 10
661750.624447183
 20
6867942.38393625
 10
661749.406319921
 20
6867942.6783341
 10
661748.987708665
 20
6867943.0004383
 10
661749.068824075
 20
6867943.66545142
 10
661749.561672902
 20
6867946.8692872
 10
661750.228929307
 20
6867950.40570523
 10
661750.669980555
 20
6867952.67864662
 10
661750.976379071
 20
6867953.33115883
 10
661750.913143092
 20
6867953.85360315
 10
661751.031783857
 20
6867955.7057181
 10
661751.883192841
 20
6867959.24192074
 10
661753.005025778
 20
6867965.0183323
 10
661753.568035534
 20
6867968.81562402
 10
661753.849846513
 20
6867969.82599045
 10
661754.232627854
 20
6867970.25663301
 10
661754.084364673
 20
6867970.73698581
 10
661754.290514584
 20
6867971.73879096
 10
661755.103849817
 20
6867975.63045946
 10
661756.39640321
 20
6867984.20926205
 10
661756.89664505
 20
6867986.04436691
 10
661757.308793311
 20
6867986.57572003
 10
661757.223356873
 20
6867987.06840561
 10
661757.575587297
 20
6867989.54970804
 10
661758.268084657
 20
6867993.1893794
 10
661759.148235864
 20
6867997.29294206
 10
661759.913202284
 20
6868001.94856013
 10
661760.449707718
 20
6868004.3658531
 10
661760.816606964
 20
6868005.15787658
 10
661760.705611414
 20
6868005.77412343
 10
661761.023933567
 20
6868007.71196877
 10
661761.988392561
 20
6868011.79712601
 10
661763.737466606
 20
6868017.07504349
 10
661764.285767639
 20
6868020.91062907
 10
661765.114305417
 20
6868025.04819509
 10
661765.267261616
 20
6868025.96698302
  0
LWPOLYLINE
  5
2002C
100
AcDbEntity
  8
0
100
AcDbPolyline
 70
0
 90
13
 10
661684.962564524
 20
6868016.16607135
 10
661684.506258457
 20
6868015.80170917
 10
661681.629290522
 20
6868015.91361068
 10
661677.58499346
 20
6868016.92249586
 10
661674.459137691
 20
6868017.71105087
 10
661674.20492328
 20
6868018.45364839
 10
661673.771818969
 20
6868017.80011659
 10
661672.40512234
 20
6868018.07049415
 10
661668.946506629
 20
6868018.67684425
 10
661664.669477418
 20
6868019.38869996
 10
661660.569070485
 20
6868019.94870881
 10
661658.481471052
 20
6868020.62308389
 10
661658.060265789
 20
6868021.29730262
  0
LWPOLYLINE
  5
2002D
100
AcDbEntity
  8
0
100
AcDbPolyline
 70
0
 90
28
 10
661788.405468021
 20
6868123.11236052
 10
661789.35773658
 20
6868123.33644891
 10
661789.537968396
 20
6868124.36055098
 10
661789.95678675
 20
6868128.03119289
 10
661790.528239777
 20
6868130.82195251
 10
661791.030632818
 20
6868133.32941508
 10
661791.306079839
 20
6868134.87943509
 10
661790.626431967
 20
6868135.59191487
 10
661791.432994734
 20
6868135.46982673
 10
661791.578476033
 20
6868136.50398132
 10
661792.297635925
 20
6868140.37021169
 10
661793.102534988
 20
6868144.43733911
 10
661793.622146874
 20
6868147.12928557
 10
661793.716124078
 20
6868148.05980545
 10
661793.084334332
 20
6868148.61962089
 10
661793.786995092
 20
6868148.48802538
 10
661793.998524462
 20
6868149.64555018
 10
661794.671878637
 20
6868153.14288945
 10
661795.176063423
 20
6868158.29104315
 10
661795.633588331
 20
6868160.34972779
 10
661795.796566254
 20
6868161.53630072
 10
661796.386126121
 20
6868162.03727088
 10
661795.847438665
 20
6868162.3216146
 10
661797.935519021
 20
6868173.21833558
 10
661797.596313463
 20
6868174.92642991
 10
661796.685807671
 20
6868175.58913778
 10
661795.776152763
 20
6868175.91159368
 10
661794.877697873
 20
6868175.53097217
  0
LWPOLYLINE
  5
2002E
100
AcDbEntity
  8
0
100
AcDbPolyline
 70
0
 90
111
 10
661887.844700236
 20
6867903.78764269
 10
661889.575103817
 20
6867903.9369716
 10
661890.298908082
 20
6867904.94593521
 10
661890.924554675
 20
6867908.04392079
 10
661891.398051073
 20
6867912.30495583
 10
661892.0288342
 20
6867916.12559254
 10
661892.751402193
 20
6867921.11741143
 10
661893.161341819
 20
6867925.22007874
 10
661893.043331368
 20
6867929.38366741
 10
661892.64996978
 20
6867933.23743937
 10
661892.312611832
 20
6867935.11541105
 10
661891.622651776
 20
6867935.90179849
 10
661890.186968006
 20
6867937.6412445
 10
661890.714468671
 20
6867939.29050279
 10
661891.160014021
 20
6867942.97779202
 10
661890.757537563
 20
6867943.52085579
 10
661890.894290331
 20
6867945.10533743
 10
661890.368842563
 20
6867945.86423539
 10
661890.605593208
 20
6867945.0167609
 10
661890.570085824
 20
6867944.43443713
 10
661887.76642192
 20
6867944.09563935
 10
661884.496907421
 20
6867944.26488474
 10
661879.648236723
 20
6867944.29848642
 10
661874.460689063
 20
6867944.20403177
 10
661870.006240374
 20
6867943.99540249
 10
661867.019782936
 20
6867943.99747136
 10
661866.61701184
 20
6867944.36987461
 10
661866.325297511
 20
6867944.15013227
 10
661865.190561794
 20
6867943.8818258
 10
661862.412493942
 20
6867943.62045589
 10
661857.707753223
 20
6867943.08228618
 10
661855.696862703
 20
6867942.90983005
 10
661852.189558812
 20
6867942.92256747
 10
661846.852124019
 20
6867942.60764646
 10
661842.482847058
 20
6867942.34713824
 10
661837.847204068
 20
6867942.02444799
 10
661835.446859693
 20
6867942.09476504
 10
661835.189758855
 20
6867942.54831469
 10
661834.721891129
 20
6867941.90419924
 10
661832.794788083
 20
6867941.65502459
 10
661827.575932932
 20
6867941.46351591
 10
661822.859465814
 20
6867941.20420034
 10
661818.682635703
 20
6867940.83828062
 10
661812.808320748
 20
6867940.49301594
 10
661810.714344236
 20
6867940.37450101
 10
661807.915124528
 20
6867940.24080944
 10
661807.229431953
 20
6867940.54094855
 10
661806.77205935
 20
6867940.21035817
 10
661805.460829577
 20
6867939.6518766
 10
661800.031161145
 20
6867938.9124418
 10
661793.61835628
 20
6867938.77406668
 10
661789.35330716
 20
6867938.94308024
 10
661787.862140461
 20
6867939.12714305
 10
661787.521373056
 20
6867939.3792287
 10
661787.218618564
 20
6867939.07912648
 10
661785.531911125
 20
6867938.90029155
 10
661780.817170199
 20
6867938.58854815
 10
661776.220108818
 20
6867938.2819622
 10
661772.06304577
 20
6867937.59883203
 10
661768.784528641
 20
6867936.99719569
 10
661763.672021791
 20
6867936.594498
 10
661762.633658551
 20
6867937.21223247
 10
661762.301590122
 20
6867937.87478606
 10
661761.833264904
 20
6867937.82839491
 10
661760.853032878
 20
6867938.16569975
 10
661759.343322869
 20
6867939.1301659
 10
661757.82129153
 20
6867939.74590753
 10
661752.853535128
 20
6867939.00772765
 10
661748.968341843
 20
6867938.22162283
 10
661746.259560526
 20
6867937.09561907
 10
661742.354900839
 20
6867936.35894729
 10
661739.16251235
 20
6867936.29405358
 10
661738.403528099
 20
6867936.37320633
 10
661738.065421625
 20
6867935.84481849
 10
661734.583042611
 20
6867934.87943314
 10
661729.226398419
 20
6867934.63628805
 10
661723.950050672
 20
6867934.41671085
 10
661718.533158597
 20
6867934.24458792
 10
661713.256310759
 20
6867933.78334286
 10
661709.973977785
 20
6867933.95425432
 10
661709.076355379
 20
6867933.92571998
 10
661708.693878772
 20
6867934.40975887
 10
661708.534695804
 20
6867933.61571149
 10
661706.233096101
 20
6867933.26693534
 10
661701.195678504
 20
6867933.00669167
 10
661696.331356385
 20
6867932.65208173
 10
661692.289852173
 20
6867932.32020111
 10
661688.012340703
 20
6867931.93576685
 10
661686.565277812
 20
6867932.11993448
 10
661686.103605661
 20
6867933.02336329
 10
661685.917910084
 20
6867931.82341621
 10
661680.332365784
 20
6867931.47637427
 10
661674.266222291
 20
6867931.09304319
 10
661669.92287011
 20
6867930.9498125
 10
661664.397980131
 20
6867930.7043202
 10
661659.641181079
 20
6867930.50045013
 10
661659.258874059
 20
6867931.3414524
 10
661659.180545619
 20
6867930.52703956
 10
661653.643831978
 20
6867930.13818414
 10
661646.91530398
 20
6867929.73721515
 10
661641.384956917
 20
6867929.31385636
 10
661637.865729823
 20
6867929.18798438
 10
661632.235070506
 20
6867929.26033736
 10
661632.047280283
 20
6867929.69953627
 10
661631.654186117
 20
6867929.26289083
 10
661630.613579306
 20
6867929.0796325
 10
661629.549959693
 20
6867929.79245146
 10
661627.414243434
 20
6867932.77702519
 10
661625.471724864
 20
6867935.67710201
 10
661624.641152436
 20
6867937.08283873
 10
661624.23631549
 20
6867937.6941735
  0
LWPOLYLINE
  5
2002F
100
AcDbEntity
  8
0
100
AcDbPolyline
 70
0
 90
202
 10
661740.306912623
 20
6868185.66974593
 10
661741.004684232
 20
6868185.74186327
 10
661743.817089185
 20
6868185.39299875
 10
661750.170314467
 20
6868184.15446068
 10
661754.541989277
 20
6868183.30729994
 10
661755.20093512
 20
6868182.88352441
 10
661756.054559157
 20
6868182.95183357
 10
661760.310965581
 20
6868182.46351288
 10
661765.602046527
 20
6868181.34191561
 10
661768.561626297
 20
6868180.69221318
 10
661768.91619981
 20
6868180.3132631
 10
661769.394805759
 20
6868180.45800162
 10
661772.013942906
 20
6868180.05167524
 10
661776.688344529
 20
6868179.31632952
 10
661780.043507705
 20
6868178.98465593
 10
661782.696165195
 20
6868178.52992503
 10
661782.955624151
 20
6868177.73273895
 10
661783.55968155
 20
6868178.28328285
 10
661786.495531988
 20
6868177.7025069
 10
661791.583170254
 20
6868176.90587776
 10
661794.435289505
 20
6868176.11363144
 10
661794.877697873
 20
6868175.53097217
 10
661795.789785943
 20
6868176.05409253
 10
661797.84487317
 20
6868175.62388591
 10
661801.734255806
 20
6868174.2565487
 10
661806.288225863
 20
6868173.33779541
 10
661808.952285844
 20
6868172.66652601
 10
661809.527840859
 20
6868172.54503805
 10
661810.05444222
 20
6868172.46557434
 10
661813.095248407
 20
6868171.70174632
 10
661816.036821944
 20
6868170.93208778
 10
661820.220895673
 20
6868169.90272954
 10
661822.834490367
 20
6868169.74759642
 10
661823.4908633
 20
6868169.89580021
 10
661824.026545819
 20
6868169.50768934
 10
661826.490473001
 20
6868168.86795838
 10
661831.235580481
 20
6868167.73741961
 10
661835.007898059
 20
6868167.10389056
 10
661836.403116574
 20
6868167.08746183
 10
661837.011313959
 20
6868167.37721273
 10
661837.396702719
 20
6868166.90947195
 10
661838.953316833
 20
6868166.13654006
 10
661843.193406474
 20
6868165.74606147
 10
661847.923858636
 20
6868164.7449993
 10
661850.359529769
 20
6868164.3955195
 10
661850.884490845
 20
6868164.78979539
 10
661851.160756402
 20
6868164.29831017
 10
661853.257190653
 20
6868163.8198481
 10
661856.764689645
 20
6868163.18974683
 10
661861.692082255
 20
6868162.45002257
 10
661864.250997263
 20
6868162.09769774
 10
661864.726276178
 20
6868162.12700019
 10
661865.248428026
 20
6868161.96528058
 10
661868.357976641
 20
6868161.24995813
 10
661872.222586172
 20
6868160.32764407
 10
661875.072941873
 20
6868159.93244425
 10
661875.553591414
 20
6868160.14649463
 10
661876.071307964
 20
6868160.05319509
 10
661877.083222971
 20
6868159.72719123
 10
661878.412051277
 20
6868159.18262477
 10
661882.139164745
 20
6868158.00897744
 10
661886.329788237
 20
6868157.24762346
 10
661887.48489395
 20
6868157.03540292
 10
661887.898180261
 20
6868157.85373053
 10
661887.972328204
 20
6868156.98122495
 10
661889.986663666
 20
6868156.42677213
 10
661894.308489194
 20
6868155.60951449
 10
661898.738561695
 20
6868154.55264622
 10
661899.59700678
 20
6868154.66635272
 10
661900.154241051
 20
6868155.56546776
 10
661900.309295078
 20
6868154.53099999
 10
661901.520546782
 20
6868154.08859301
 10
661905.584030334
 20
6868153.73935593
 10
661908.872870538
 20
6868152.81214545
 10
661912.799293933
 20
6868151.83236756
 10
661914.194718639
 20
6868151.73533404
 10
661914.964386121
 20
6868152.81950296
 10
661915.120219619
 20
6868151.45753752
 10
661916.7843852
 20
6868150.98694732
 10
661920.615890806
 20
6868150.21130092
 10
661924.74252044
 20
6868149.39553576
 10
661926.438605377
 20
6868149.5243081
 10
661927.284192106
 20
6868150.52457689
 10
661927.796568801
 20
6868149.35931978
 10
661928.462567131
 20
6868148.76092903
 10
661931.537905176
 20
6868148.09831652
 10
661935.897019446
 20
6868147.39519858
 10
661939.85188152
 20
6868146.67046306
 10
661941.203805269
 20
6868146.59003194
 10
661941.684789404
 20
6868147.83975655
 10
661941.675596035
 20
6868146.55319784
 10
661942.851903867
 20
6868146.09064214
 10
661946.055344765
 20
6868145.476495
 10
661949.916942451
 20
6868144.70585971
 10
661953.374011906
 20
6868144.11321646
 10
661954.068572996
 20
6868144.25414111
 10
661954.535025697
 20
6868145.33789908
 10
661954.530944005
 20
6868144.17807824
 10
661955.385137306
 20
6868143.66352381
 10
661957.489722057
 20
6868143.30755479
 10
661960.931184887
 20
6868142.66349458
 10
661963.004896011
 20
6868142.46119067
 10
661965.093783199
 20
6868143.24830943
 10
661966.419655884
 20
6868143.53484008
 10
661967.519979181
 20
6868143.23922264
 10
661967.751645867
 20
6868142.78176781
 10
661968.178127431
 20
6868143.08143745
 10
661969.327192317
 20
6868142.86000609
 10
661971.869111869
 20
6868142.39163352
 10
661973.712406189
 20
6868141.46117025
 10
661975.210434879
 20
6868138.81451856
 10
661976.668549188
 20
6868135.8751096
 10
661978.275879235
 20
6868132.83241399
 10
661979.343529922
 20
6868130.55685837
 10
661979.198630626
 20
6868127.89542468
 10
661977.925220867
 20
6868125.20044514
 10
661977.123419338
 20
6868123.16587884
 10
661976.37644393
 20
6868122.78250254
 10
661976.457546116
 20
6868122.22261855
 10
661975.853193324
 20
6868121.56937934
 10
661974.428813338
 20
6868118.56217078
 10
661972.640815884
 20
6868114.76484503
 10
661970.813973024
 20
6868110.46624966
 10
661968.807037962
 20
6868105.94124296
 10
661967.069039161
 20
6868101.53679305
 10
661965.168464119
 20
6868097.02461865
 10
661963.543387365
 20
6868092.99937154
 10
661961.963898418
 20
6868090.22300556
 10
661961.417104081
 20
6868089.81514831
 10
661961.163852809
 20
6868089.10770844
 10
661959.941840184
 20
6868086.67038672
 10
661957.975877799
 20
6868082.19237653
 10
661955.138357479
 20
6868075.84947699
 10
661954.062298427
 20
6868073.29665825
 10
661952.618715892
 20
6868070.19654251
 10
661950.609002423
 20
6868065.79203159
 10
661948.93684406
 20
6868062.00377599
 10
661947.361760098
 20
6868058.45044765
 10
661946.758889485
 20
6868056.94649942
 10
661946.297697136
 20
6868056.38536211
 10
661946.118294139
 20
6868055.33474709
 10
661945.130836723
 20
6868053.58701322
 10
661944.158387879
 20
6868050.87060315
 10
661942.299810191
 20
6868046.73106234
 10
661940.550774682
 20
6868042.17731227
 10
661938.494827267
 20
6868037.78571349
 10
661936.54925524
 20
6868034.18404255
 10
661934.585907716
 20
6868029.83038677
 10
661932.906232735
 20
6868025.97972725
 10
661931.824989044
 20
6868023.14300954
 10
661931.280864994
 20
6868022.7523742
 10
661931.41908097
 20
6868022.10963883
 10
661930.824649454
 20
6868020.81265992
 10
661929.473212718
 20
6868018.29724309
 10
661927.791377567
 20
6868014.62063216
 10
661926.114329668
 20
6868011.0778045
 10
661923.962610209
 20
6868006.244625
 10
661922.333187794
 20
6868001.78980682
 10
661920.666871016
 20
6867997.81803793
 10
661919.116679427
 20
6867994.46972452
 10
661917.518491672
 20
6867990.82685441
 10
661917.08376151
 20
6867989.88838241
 10
661916.41909009
 20
6867989.57712514
 10
661916.314858144
 20
6867988.84924668
 10
661915.096616913
 20
6867986.34129755
 10
661913.549981852
 20
6867982.82893824
 10
661910.394487764
 20
6867975.66877778
 10
661908.934576391
 20
6867972.47073874
 10
661905.453049872
 20
6867965.16797821
 10
661903.597179446
 20
6867960.79842998
 10
661902.237848672
 20
6867957.47740775
 10
661901.794279577
 20
6867956.32900722
 10
661901.257340336
 20
6867955.76911387
 10
661901.33739416
 20
6867955.25482965
 10
661900.997875987
 20
6867954.26828578
 10
661900.063127396
 20
6867952.06965695
 10
661899.007285295
 20
6867949.42163924
 10
661898.115462543
 20
6867948.3992545
 10
661895.60419603
 20
6867946.57723346
 10
661892.709117126
 20
6867945.61400265
 10
661891.80384226
 20
6867945.35048165
 10
661891.414065431
 20
6867943.26224901
 10
661890.884123592
 20
6867939.23834163
 10
661890.368846374
 20
6867937.70138964
 10
661891.716917214
 20
6867935.98944158
 10
661892.47023795
 20
6867935.19827732
 10
661892.813652421
 20
6867933.28796063
 10
661893.194444812
 20
6867929.39150039
 10
661893.373853738
 20
6867925.19000242
 10
661892.916750108
 20
6867921.04032734
 10
661892.190917653
 20
6867916.0800851
 10
661891.555323769
 20
6867912.2638968
 10
661891.121223607
 20
6867908.08293402
 10
661890.377329253
 20
6867904.83292553
 10
661889.46587712
 20
6867903.55805595
 10
661889.540826818
 20
6867899.79965126
 10
661888.919926944
 20
6867896.89967536
 10
661887.821224416
 20
6867894.59092626
 10
661887.385155393
 20
6867891.44731422
 10
661886.652169779
 20
6867887.22013278
 10
661885.870661371
 20
6867881.46849535
 10
661885.813585799
 20
6867880.87722464
  0
LWPOLYLINE
  5
20030
100
AcDbEntity
  8
0
100
AcDbPolyline
 70
0
 90
2
 10
661889.46587712
 20
6867903.55805595
 10
661887.80085672
 20
6867903.58169339
  0
LWPOLYLINE
  5
20031
100
AcDbEntity
  8
0
100
AcDbPolyline
 70
0
 90
12
 10
661723.22901144
 20
6867939.47602064
 10
661723.817710628
 20
6867939.473054
 10
661726.425127753
 20
6867939.58758611
 10
661732.59399193
 20
6867939.60017239
 10
661737.708154808
 20
6867939.6805287
 10
661741.668361983
 20
6867941.59446861
 10
661744.784448618
 20
6867944.75427338
 10
661746.687495419
 20
6867947.20409737
 10
661748.06832661
 20
6867949.90109309
 10
661749.636344668
 20
6867952.47323155
 10
661750.310083082
 20
6867952.80498226
 10
661750.913143092
 20
6867953.85360315
  0
LWPOLYLINE
  5
20032
100
AcDbEntity
  8
0
100
AcDbPolyline
 70
0
 90
40
 10
661781.43399255
 20
6868337.35009085
 10
661781.616153342
 20
6868337.06364935
 10
661783.025600254
 20
6868334.19493595
 10
661783.063571338
 20
6868333.80343517
 10
661783.479141328
 20
6868333.39479913
 10
661782.032069089
 20
6868326.60742854
 10
661779.144228389
 20
6868318.74237693
 10
661777.741236421
 20
6868312.60080771
 10
661777.060119077
 20
6868306.48431091
 10
661777.823385362
 20
6868306.11748878
 10
661776.97904433
 20
6868306.17570146
 10
661776.69618013
 20
6868303.63157232
 10
661776.945310625
 20
6868301.40104405
 10
661775.6648367
 20
6868294.6120204
 10
661774.595923456
 20
6868287.98710746
 10
661773.888756247
 20
6868283.90135445
 10
661773.851187363
 20
6868283.68790714
 10
661773.785185586
 20
6868283.18310996
 10
661772.432390977
 20
6868276.69073683
 10
661771.051817485
 20
6868269.98800317
 10
661770.014870578
 20
6868267.66737054
 10
661769.793876467
 20
6868266.79699753
 10
661769.693647899
 20
6868263.05965542
 10
661769.064604424
 20
6868259.36663208
 10
661769.059668013
 20
6868258.83757804
 10
661768.988212853
 20
6868258.32636736
 10
661767.881802177
 20
6868252.53481284
 10
661766.648211552
 20
6868246.09709154
 10
661765.368531498
 20
6868239.79492272
 10
661764.252880311
 20
6868237.16292342
 10
661764.033434558
 20
6868236.51980232
 10
661763.997695177
 20
6868235.31341928
 10
661764.506807058
 20
6868234.62845721
 10
661763.255767184
 20
6868233.80976074
 10
661762.10778876
 20
6868231.06410422
 10
661761.140596031
 20
6868225.24067727
 10
661759.8761259
 20
6868219.00847154
 10
661758.617375356
 20
6868213.28551328
 10
661758.903748937
 20
6868210.51280943
 10
661759.930070347
 20
6868209.65377088
  0
LWPOLYLINE
  5
20033
100
AcDbEntity
  8
0
100
AcDbPolyline
 70
0
 90
19
 10
661739.967141668
 20
6868343.68947548
 10
661739.609469122
 20
6868343.72853793
 10
661735.735487022
 20
6868344.85469132
 10
661732.965492605
 20
6868345.74928822
 10
661726.853980895
 20
6868347.06575975
 10
661721.406590392
 20
6868347.54326467
 10
661716.04521321
 20
6868347.11797667
 10
661710.945514763
 20
6868346.84312545
 10
661707.929001172
 20
6868346.49926379
 10
661707.244914318
 20
6868347.07092675
 10
661707.815946841
 20
6868346.38982103
 10
661711.078562061
 20
6868346.77131714
 10
661716.165291251
 20
6868347.05317409
 10
661721.555523238
 20
6868347.46287528
 10
661727.004448373
 20
6868346.98454138
 10
661733.158174623
 20
6868345.64526637
 10
661735.917557373
 20
6868344.75640168
 10
661739.790565733
 20
6868343.63071308
 10
661739.946414792
 20
6868343.58101167
  0
LWPOLYLINE
  5
20034
100
AcDbEntity
  8
0
100
AcDbPolyline
 70
0
 90
35
 10
661990.528003469
 20
6868281.39487957
 10
661990.114669273
 20
6868281.42131758
 10
661982.650000313
 20
6868282.83036329
 10
661973.969986025
 20
6868284.44534568
 10
661966.065225884
 20
6868287.4324944
 10
661965.872090002
 20
6868286.21312657
 10
661965.805792504
 20
6868287.46274267
 10
661965.194524826
 20
6868287.52180733
 10
661961.493248559
 20
6868288.47152932
 10
661957.435559667
 20
6868289.11222766
 10
661950.253283187
 20
6868289.99254139
 10
661945.125921927
 20
6868290.34651951
 10
661938.001079599
 20
6868291.87941878
 10
661937.721226483
 20
6868291.60269536
 10
661937.622853214
 20
6868292.08021863
 10
661930.597711079
 20
6868293.28108588
 10
661925.092553231
 20
6868294.32758269
 10
661920.198217675
 20
6868295.15544344
 10
661914.535657831
 20
6868296.2105849
 10
661912.209896052
 20
6868296.52828079
 10
661912.027463227
 20
6868296.35386313
 10
661911.999890536
 20
6868296.55244726
 10
661910.21815027
 20
6868296.64748573
 10
661905.056261836
 20
6868297.15537241
 10
661900.377381534
 20
6868297.84764658
 10
661896.127362045
 20
6868298.47834856
 10
661889.826931493
 20
6868299.76123247
 10
661889.791912249
 20
6868300.23111119
 10
661889.453730188
 20
6868299.76016862
 10
661883.859866065
 20
6868301.00578662
 10
661880.629272338
 20
6868301.91174868
 10
661875.060170611
 20
6868302.6174253
 10
661871.008164322
 20
6868303.63587006
 10
661868.549769285
 20
6868304.10363789
 10
661868.280942822
 20
6868304.22432625
  0
LWPOLYLINE
  5
20035
100
AcDbEntity
  8
0
100
AcDbPolyline
 70
0
 90
9
 10
661795.490579458
 20
6868319.37181426
 10
661795.429176668
 20
6868319.52632873
 10
661794.347557286
 20
6868322.51927548
 10
661793.634176458
 20
6868323.87343607
 10
661792.518427456
 20
6868326.22248316
 10
661790.677124219
 20
6868328.34964539
 10
661785.315377821
 20
6868334.40658715
 10
661781.866144818
 20
6868337.11371656
 10
661781.537195408
 20
6868337.33019623
  0
LWPOLYLINE
  5
20036
100
AcDbEntity
  8
0
100
AcDbPolyline
 70
0
 90
114
 10
661781.631626003
 20
6868337.31199267
 10
661782.130776872
 20
6868337.1705274
 10
661785.514558473
 20
6868334.54528568
 10
661790.919727489
 20
6868328.46718494
 10
661793.161971011
 20
6868325.64861725
 10
661793.161971011
 20
6868325.64861725
 10
661793.222475085
 20
6868325.57767985
 10
661793.287683506
 20
6868325.51104113
 10
661793.357291646
 20
6868325.4490124
 10
661793.430974326
 20
6868325.39188342
 10
661793.508387329
 20
6868325.33992108
 10
661793.589169013
 20
6868325.29336813
 10
661793.672941999
 20
6868325.25244205
 10
661793.759314933
 20
6868325.21733402
 10
661793.847884317
 20
6868325.18820806
 10
661793.93823639
 20
6868325.16520023
 10
661794.029949064
 20
6868325.14841801
 10
661794.122593895
 20
6868325.13793981
 10
661794.215738083
 20
6868325.13381456
 10
661794.308946497
 20
6868325.13606156
 10
661794.401783705
 20
6868325.14467029
 10
661794.493816009
 20
6868325.15960054
 10
661794.584613472
 20
6868325.18078257
 10
661794.673751924
 20
6868325.20811741
 10
661794.760814948
 20
6868325.24147738
 10
661794.84539582
 20
6868325.28070662
 10
661794.927099412
 20
6868325.32562188
 10
661795.005544039
 20
6868325.37601332
 10
661795.080363239
 20
6868325.43164555
 10
661795.151207487
 20
6868325.49225867
 10
661798.102061789
 20
6868328.19699194
 10
661800.641716589
 20
6868329.69964016
 10
661800.641716589
 20
6868329.69964016
 10
661800.898943046
 20
6868329.84019353
 10
661801.165170817
 20
6868329.96284538
 10
661801.439155877
 20
6868330.06702257
 10
661801.719617957
 20
6868330.15223832
 10
661802.005246518
 20
6868330.21809442
 10
661802.294706883
 20
6868330.26428314
 10
661802.586646468
 20
6868330.29058867
 10
661802.879701103
 20
6868330.29688807
 10
661803.172501409
 20
6868330.28315191
 10
661803.463679197
 20
6868330.24944438
 10
661803.751873856
 20
6868330.19592298
 10
661804.035738717
 20
6868330.12283782
 10
661804.313947343
 20
6868330.03053039
 10
661804.585199728
 20
6868329.91943203
 10
661804.848228368
 20
6868329.79006188
 10
661804.854085999
 20
6868329.78692777
 10
661805.022689712
 20
6868329.38363002
 10
661805.268881156
 20
6868329.71290885
 10
661811.815588333
 20
6868328.6341444
 10
661818.763406976
 20
6868327.22142951
 10
661818.944773187
 20
6868326.84529277
 10
661819.134596853
 20
6868327.17709407
 10
661825.640037098
 20
6868326.03493512
 10
661831.242351557
 20
6868324.98325423
 10
661831.379406095
 20
6868324.50065506
 10
661831.621928803
 20
6868324.96963051
 10
661838.603799799
 20
6868323.73630815
 10
661843.719662461
 20
6868322.81221011
 10
661843.76167936
 20
6868322.05037565
 10
661844.174712181
 20
6868322.73840978
 10
661846.405031256
 20
6868322.26869915
 10
661850.882561883
 20
6868321.46409569
 10
661855.584292953
 20
6868320.35035578
 10
661855.672692503
 20
6868319.97316492
 10
661856.033453665
 20
6868320.4037383
 10
661859.331353519
 20
6868319.82876686
 10
661861.92197655
 20
6868318.53359863
 10
661867.057321312
 20
6868317.63441287
 10
661871.757867533
 20
6868316.52532745
 10
661874.431448108
 20
6868315.82474079
 10
661874.738868284
 20
6868316.05791036
 10
661874.856624414
 20
6868315.8347282
 10
661878.813676918
 20
6868314.90476487
 10
661883.43498668
 20
6868313.5977132
 10
661884.779169823
 20
6868313.34958802
 10
661887.303632095
 20
6868313.43323065
 10
661887.478081331
 20
6868313.61982987
 10
661887.678071243
 20
6868313.41834707
 10
661893.044549387
 20
6868312.42666106
 10
661899.94365749
 20
6868311.06848368
 10
661900.199021696
 20
6868311.26214948
 10
661900.344262097
 20
6868311.03860158
 10
661906.198202495
 20
6868310.0168446
 10
661912.557606811
 20
6868308.74934402
 10
661912.936738546
 20
6868308.94627329
 10
661913.102895064
 20
6868308.67106392
 10
661919.820855801
 20
6868308.16758698
 10
661925.843399575
 20
6868307.22295345
 10
661925.959845696
 20
6868306.81889047
 10
661926.25156877
 20
6868307.15447294
 10
661927.346490142
 20
6868306.76695483
 10
661928.852562449
 20
6868306.52277905
 10
661931.823534035
 20
6868306.16350987
 10
661938.825469895
 20
6868304.79840113
 10
661938.947369304
 20
6868304.3503773
 10
661939.194647356
 20
6868304.61489733
 10
661944.590771798
 20
6868303.61490941
 10
661951.123973516
 20
6868302.43286169
 10
661951.259762204
 20
6868302.09057517
 10
661951.532157049
 20
6868302.34788773
 10
661957.613978271
 20
6868301.25759217
 10
661964.401989201
 20
6868299.96119864
 10
661964.516219904
 20
6868299.55418562
 10
661964.747390858
 20
6868299.89591346
 10
661970.927873676
 20
6868298.70545668
 10
661977.051287899
 20
6868297.56727629
 10
661977.152467405
 20
6868297.16312934
 10
661977.405556792
 20
6868297.62444243
 10
661983.724598468
 20
6868296.41937398
 10
661989.595136746
 20
6868295.18630661
 10
661989.945422346
 20
6868294.76717945
  0
LWPOLYLINE
  5
20037
100
AcDbEntity
  8
0
100
AcDbPolyline
 70
0
 90
10
 10
661740.824094348
 20
6868343.52571622
 10
661741.218425894
 20
6868343.43433209
 10
661746.499033806
 20
6868342.5068338
 10
661752.004386528
 20
6868341.77857687
 10
661757.131039146
 20
6868340.9190131
 10
661762.797843727
 20
6868340.05477298
 10
661770.127328158
 20
6868339.1519393
 10
661774.759358492
 20
6868338.62370816
 10
661780.462097021
 20
6868337.98369323
 10
661781.088068729
 20
6868337.91506143
  0
LWPOLYLINE
  5
20038
100
AcDbEntity
  8
0
100
AcDbPolyline
 70
0
 90
64
 10
661799.771224783
 20
6868420.90184642
 10
661798.861985806
 20
6868415.66124514
 10
661797.985379864
 20
6868410.08071759
 10
661797.58615755
 20
6868407.61854057
 10
661797.584808459
 20
6868407.62456054
 10
661797.058260039
 20
6868405.98032874
 10
661796.967740805
 20
6868405.75262529
 10
661796.904909787
 20
6868405.1937368
 10
661796.1456186
 20
6868401.75605963
 10
661796.02980538
 20
6868400.70019923
 10
661796.022618331
 20
6868400.65065286
 10
661796.012002753
 20
6868400.60172633
 10
661795.998010059
 20
6868400.55365658
 10
661795.980708014
 20
6868400.50667642
 10
661795.960180414
 20
6868400.46101337
 10
661795.936526673
 20
6868400.41688859
 10
661795.909861348
 20
6868400.37451576
 10
661795.880313578
 20
6868400.3341001
 10
661795.848026464
 20
6868400.29583735
 10
661795.848026463
 20
6868400.29583735
 10
661795.470174168
 20
6868399.84915657
 10
661795.12315615
 20
6868399.37812094
 10
661794.808537618
 20
6868398.88485504
 10
661794.527737645
 20
6868398.37158373
 10
661794.282022767
 20
6868397.84062209
 10
661794.066152188
 20
6868397.32981091
 10
661793.680948733
 20
6868396.32891852
 10
661793.361472858
 20
6868395.30514978
 10
661793.109069901
 20
6868394.26281586
 10
661792.924802747
 20
6868393.20630611
 10
661792.809447359
 20
6868392.14006958
 10
661792.763489505
 20
6868391.06859626
 10
661792.787122715
 20
6868389.99639821
 10
661792.880247468
 20
6868388.92799054
 10
661792.975726395
 20
6868388.26996341
 10
661793.103580338
 20
6868387.61745342
 10
661793.263497384
 20
6868386.97205241
 10
661793.263497384
 20
6868386.97205241
 10
661793.277144225
 20
6868386.91551188
 10
661793.287289986
 20
6868386.85823945
 10
661793.2938963
 20
6868386.8004517
 10
661793.296938187
 20
6868386.74236715
 10
661793.296404143
 20
6868386.68420546
 10
661793.292296186
 20
6868386.62618656
 10
661793.284629853
 20
6868386.56852986
 10
661793.273434133
 20
6868386.51145339
 10
661792.346729367
 20
6868382.45216083
 10
661792.290954014
 20
6868382.11402583
 10
661792.248031586
 20
6868381.53010183
 10
661790.813818794
 20
6868374.84571283
 10
661789.640117297
 20
6868369.88581491
 10
661788.676683021
 20
6868367.25761334
 10
661788.403660536
 20
6868366.18748028
 10
661788.352548806
 20
6868362.69062388
 10
661787.838978503
 20
6868358.65811055
 10
661787.714522604
 20
6868357.9801868
 10
661787.487157707
 20
6868357.79987074
 10
661786.234171371
 20
6868349.93667598
 10
661785.72552178
 20
6868346.93971741
 10
661785.012402292
 20
6868343.78180614
 10
661784.498274063
 20
6868339.6059981
 10
661784.62472194
 20
6868336.57431897
 10
661784.003826489
 20
6868334.06337256
 10
661783.063571338
 20
6868333.80343517
  0
LWPOLYLINE
  5
20039
100
AcDbEntity
  8
0
100
AcDbPolyline
 70
0
 90
23
 10
661771.514496843
 20
6868342.15805183
 10
661771.128198934
 20
6868341.93078355
 10
661769.58694113
 20
6868340.17487205
 10
661769.586941131
 20
6868340.17487205
 10
661769.489416115
 20
6868340.08218533
 10
661769.385723037
 20
6868339.99645493
 10
661769.276357021
 20
6868339.9180902
 10
661769.161840282
 20
6868339.84746533
 10
661769.042719628
 20
6868339.78491754
 10
661768.919563849
 20
6868339.73074549
 10
661768.792961004
 20
6868339.68520786
 10
661768.663515612
 20
6868339.64852208
 10
661768.531845763
 20
6868339.62086332
 10
661768.398580169
 20
6868339.60236365
 10
661768.264355163
 20
6868339.59311141
 10
661768.129811659
 20
6868339.59315076
 10
661767.995592089
 20
6868339.60248154
 10
661762.609676354
 20
6868340.16445068
 10
661757.02851033
 20
6868341.05054745
 10
661751.902891953
 20
6868341.89010648
 10
661746.44994661
 20
6868342.57261519
 10
661741.226259082
 20
6868343.46844626
 10
661740.830714642
 20
6868343.56036024
  0
LWPOLYLINE
  5
2003A
100
AcDbEntity
  8
0
100
AcDbPolyline
 70
0
 90
16
 10
661740.480777312
 20
6868344.10064391
 10
661740.838369247
 20
6868345.17188571
 10
661740.838369247
 20
6868345.17188571
 10
661740.909517628
 20
6868345.34725935
 10
661740.992666796
 20
6868345.51727176
 10
661741.087415696
 20
6868345.68110292
 10
661741.193307325
 20
6868345.83796262
 10
661741.309830933
 20
6868345.98709429
 10
661741.436424489
 20
6868346.12777859
 10
661741.572477394
 20
6868346.25933699
 10
661741.717333421
 20
6868346.38113492
 10
661741.870293882
 20
6868346.49258491
 10
661742.030621002
 20
6868346.59314942
 10
661742.197541471
 20
6868346.68234337
 10
661742.370250179
 20
6868346.75973656
 10
661742.547914097
 20
6868346.82495571
  0
LWPOLYLINE
  5
2003B
100
AcDbEntity
  8
0
100
AcDbPolyline
 70
0
 90
13
 10
661740.281496768
 20
6868343.14784938
 10
661739.890373815
 20
6868341.37176604
 10
661738.427825946
 20
6868337.55400504
 10
661737.067689635
 20
6868334.13108024
 10
661735.020375153
 20
6868329.77859222
 10
661733.563627739
 20
6868326.85746313
 10
661733.340344179
 20
6868325.899997
 10
661733.664779967
 20
6868326.80288388
 10
661735.1164614
 20
6868329.72674952
 10
661737.174410609
 20
6868334.07349287
 10
661738.540314573
 20
6868337.49330209
 10
661739.994410532
 20
6868341.31562864
 10
661740.348187629
 20
6868343.1351051
  0
LWPOLYLINE
  5
2003C
100
AcDbEntity
  8
0
100
AcDbPolyline
 70
0
 90
10
 10
661740.811526297
 20
6868343.45994757
 10
661741.357205068
 20
6868343.35942749
 10
661746.646459494
 20
6868342.42725853
 10
661752.254431058
 20
6868341.62864034
 10
661757.314893801
 20
6868340.81975958
 10
661763.010695641
 20
6868339.93985569
 10
661770.314257622
 20
6868339.05102481
 10
661774.97385793
 20
6868338.50790089
 10
661780.597653387
 20
6868337.91052949
 10
661781.070787899
 20
6868337.82541751
  0
LWPOLYLINE
  5
2003D
100
AcDbEntity
  8
0
100
AcDbPolyline
 70
0
 90
2
 10
661965.872089997
 20
6868286.21312656
 10
661962.148438415
 20
6868278.52205834
  0
LWPOLYLINE
  5
2003E
100
AcDbEntity
  8
0
100
AcDbPolyline
 70
0
 90
57
 10
661962.148438415
 20
6868278.52205834
 10
661962.571308789
 20
6868278.14824695
 10
661962.536402213
 20
6868275.8679548
 10
661962.185985629
 20
6868273.68080997
 10
661961.232730358
 20
6868270.14621755
 10
661960.756190021
 20
6868268.10872458
 10
661960.245878293
 20
6868267.74448972
 10
661960.596469127
 20
6868267.38263904
 10
661960.292980312
 20
6868265.81317197
 10
661959.010028227
 20
6868262.01910245
 10
661958.079450684
 20
6868259.3907419
 10
661957.726471203
 20
6868257.19827294
 10
661957.176470258
 20
6868256.80887652
 10
661957.606584799
 20
6868256.46017661
 10
661957.428726867
 20
6868255.61553425
 10
661956.828800019
 20
6868252.78187818
 10
661956.362560609
 20
6868248.86801609
 10
661956.093180237
 20
6868246.47807016
 10
661955.101343711
 20
6868246.38451947
 10
661955.996062314
 20
6868245.79718582
 10
661955.933062224
 20
6868244.82970395
 10
661955.391690107
 20
6868242.553834
 10
661954.74779887
 20
6868238.86674201
 10
661954.159016599
 20
6868235.26589167
 10
661953.977455969
 20
6868234.24662731
 10
661953.056385715
 20
6868233.99146676
 10
661953.753192442
 20
6868233.61776617
 10
661952.549502613
 20
6868229.94355575
 10
661952.137485258
 20
6868227.71405693
 10
661951.688622362
 20
6868225.26760024
 10
661951.361368066
 20
6868223.86920776
 10
661950.876571438
 20
6868223.60102362
 10
661951.229461955
 20
6868223.19143664
 10
661950.821485613
 20
6868221.52114993
 10
661950.037720842
 20
6868217.81120113
 10
661949.46758542
 20
6868213.82669463
 10
661949.287850745
 20
6868212.20627635
 10
661948.669246152
 20
6868211.96344816
 10
661949.147908241
 20
6868211.50844729
 10
661949.024169675
 20
6868210.10874322
 10
661948.231691001
 20
6868206.35787481
 10
661947.651596607
 20
6868202.9526407
 10
661947.233722683
 20
6868200.93202621
 10
661946.511248303
 20
6868200.55555862
 10
661947.05505784
 20
6868200.03681013
 10
661946.931858606
 20
6868198.7909832
 10
661946.084202362
 20
6868194.31318271
 10
661945.588121765
 20
6868191.41017801
 10
661945.173199377
 20
6868189.79750329
 10
661944.439062105
 20
6868189.46757925
 10
661945.032183277
 20
6868189.00808102
 10
661944.756274038
 20
6868187.49749145
 10
661943.854546389
 20
6868183.39642658
 10
661943.04984264
 20
6868180.637564
 10
661942.269133325
 20
6868176.36236451
 10
661942.064245821
 20
6868175.48818434
 10
661941.835778522
 20
6868175.027849
  0
LWPOLYLINE
  5
2003F
100
AcDbEntity
  8
0
100
AcDbPolyline
 70
0
 90
6
 10
661740.827491776
 20
6868343.54349495
 10
661741.234652674
 20
6868343.45207916
 10
661746.504187413
 20
6868342.54426786
 10
661752.035089667
 20
6868341.82888803
 10
661762.855561642
 20
6868340.10226186
 10
661781.102225404
 20
6868337.98849889
  0
LWPOLYLINE
  5
20040
100
AcDbEntity
  8
0
100
AcDbPolyline
 70
0
 90
75
 10
661795.521793401
 20
6868318.8705725
 10
661795.537946573
 20
6868318.4790031
 10
661795.563645319
 20
6868317.91225307
 10
661795.7113993
 20
6868317.5889737
 10
661800.77833882
 20
6868316.52504389
 10
661806.179031654
 20
6868315.79660296
 10
661811.958827546
 20
6868314.92684685
 10
661819.011068085
 20
6868313.71175587
 10
661819.479059395
 20
6868313.54557034
 10
661819.691145022
 20
6868313.54843394
 10
661823.556286018
 20
6868312.5751139
 10
661829.041928956
 20
6868311.51993793
 10
661835.299947068
 20
6868310.38553819
 10
661841.502585863
 20
6868309.26300138
 10
661845.699503965
 20
6868308.60295505
 10
661846.127354669
 20
6868308.53674852
 10
661846.442861207
 20
6868308.45830897
 10
661849.570579614
 20
6868307.84312348
 10
661854.02698321
 20
6868306.83386268
 10
661861.41537075
 20
6868305.68518324
 10
661865.445904273
 20
6868304.85684823
 10
661868.131741421
 20
6868304.18027203
 10
661868.280942822
 20
6868304.22432625
 10
661868.540731095
 20
6868304.08805869
 10
661871.007694366
 20
6868303.62050525
 10
661875.046194562
 20
6868302.57323952
 10
661880.955341214
 20
6868301.78457626
 10
661880.955341214
 20
6868301.78457626
 10
661881.020408192
 20
6868301.77358601
 10
661881.084558079
 20
6868301.75811703
 10
661881.147482979
 20
6868301.73824357
 10
661881.208880872
 20
6868301.71406102
 10
661881.268457073
 20
6868301.68568543
 10
661881.325925636
 20
6868301.65325302
 10
661881.381010732
 20
6868301.61691943
 10
661881.433447973
 20
6868301.57685907
 10
661881.482985678
 20
6868301.53326419
 10
661881.529386083
 20
6868301.48634405
 10
661881.572426484
 20
6868301.43632384
 10
661881.611900302
 20
6868301.38344365
 10
661881.647618076
 20
6868301.32795727
 10
661881.679408373
 20
6868301.27013103
 10
661881.707118612
 20
6868301.21024247
 10
661881.730615793
 20
6868301.14857903
 10
661881.749787138
 20
6868301.08543668
 10
661881.764540631
 20
6868301.02111847
 10
661881.774805461
 20
6868300.95593311
 10
661881.780532361
 20
6868300.89019348
 10
661881.781693842
 20
6868300.82421509
 10
661881.778284331
 20
6868300.75831461
 10
661881.770320192
 20
6868300.69280835
 10
661881.75783965
 20
6868300.62801072
 10
661880.845435119
 20
6868296.64015793
 10
661880.050487004
 20
6868292.12405799
 10
661880.998524405
 20
6868291.5621683
 10
661879.687140559
 20
6868291.54207858
 10
661877.85757732
 20
6868283.69873757
 10
661877.947147635
 20
6868281.14510885
 10
661877.865610171
 20
6868279.66997911
 10
661876.801919641
 20
6868274.74772021
 10
661876.229803696
 20
6868271.18038472
 10
661877.153811472
 20
6868270.66053933
 10
661876.174413194
 20
6868270.70894366
 10
661874.675547058
 20
6868262.46099028
 10
661873.252587241
 20
6868254.81402758
 10
661871.850236567
 20
6868247.01384027
 10
661870.678598149
 20
6868240.00427073
 10
661871.232392837
 20
6868239.72609338
 10
661870.742360488
 20
6868239.52141438
 10
661870.331520669
 20
6868236.86747833
 10
661869.259994522
 20
6868231.57385564
 10
661867.819941757
 20
6868224.04173331
 10
661866.751578311
 20
6868217.74559471
 10
661866.112250401
 20
6868213.91682137
 10
661866.443971577
 20
6868213.43834762
  0
LWPOLYLINE
  5
20041
100
AcDbEntity
  8
0
100
AcDbPolyline
 70
0
 90
10
 10
661866.443971577
 20
6868213.43834762
 10
661865.958738559
 20
6868213.12625207
 10
661865.550897126
 20
6868210.61278375
 10
661864.442355892
 20
6868205.57999288
 10
661864.084989303
 20
6868203.64481902
 10
661863.295106239
 20
6868200.04945296
 10
661862.374458791
 20
6868195.44522472
 10
661861.325585603
 20
6868190.92190801
 10
661860.867687426
 20
6868187.44945836
 10
661861.332940125
 20
6868186.60643839
  0
LWPOLYLINE
  5
20042
100
AcDbEntity
  8
0
100
AcDbPolyline
 70
0
 90
3
 10
661691.837752567
 20
6868344.4894695
 10
661692.549172925
 20
6868344.35737105
 10
661698.245542879
 20
6868343.15572917
  0
LWPOLYLINE
  5
20043
100
AcDbEntity
  8
0
100
AcDbPolyline
 70
0
 90
76
 10
662149.710704928
 20
6868213.93089432
 10
662145.242256147
 20
6868216.07318492
 10
662140.751422306
 20
6868218.09309588
 10
662140.340622058
 20
6868218.37694167
 10
662140.125324393
 20
6868218.44377458
 10
662134.975689649
 20
6868220.89390766
 10
662129.424061675
 20
6868223.38615298
 10
662124.346208608
 20
6868225.84620492
 10
662121.957122213
 20
6868226.94699766
 10
662121.697220244
 20
6868227.06731534
 10
662121.651562625
 20
6868227.09059614
 10
662121.15564612
 20
6868227.30401577
 10
662120.036534954
 20
6868228.24989044
 10
662119.969517642
 20
6868228.31059884
 10
662119.906824792
 20
6868228.37576352
 10
662119.848752046
 20
6868228.4450772
 10
662119.795573257
 20
6868228.51821301
 10
662119.7475392
 20
6868228.59482605
 10
662119.70487639
 20
6868228.67455506
 10
662119.667786012
 20
6868228.75702404
 10
662119.636442973
 20
6868228.84184411
 10
662119.610995078
 20
6868228.92861527
 10
662119.591562331
 20
6868229.01692834
 10
662119.57823637
 20
6868229.10636686
 10
662119.571080039
 20
6868229.19650906
 10
662119.570127082
 20
6868229.28692986
 10
662119.575381995
 20
6868229.37720287
 10
662119.586819998
 20
6868229.46690237
 10
662119.60438715
 20
6868229.55560539
 10
662119.628000612
 20
6868229.64289361
 10
662119.657549029
 20
6868229.72835542
 10
662119.69289306
 20
6868229.8115878
 10
662120.364091285
 20
6868231.25256449
 10
662121.141234647
 20
6868233.25847979
 10
662123.526184258
 20
6868239.3095557
 10
662122.161174096
 20
6868240.20589017
 10
662123.819284452
 20
6868239.67015957
 10
662126.261167238
 20
6868245.46176105
 10
662129.87943253
 20
6868253.4736203
 10
662128.562415004
 20
6868254.1991279
 10
662130.232215645
 20
6868253.43424414
 10
662133.438903578
 20
6868260.39867113
 10
662136.204676138
 20
6868267.30167245
 10
662135.004759611
 20
6868268.03790353
 10
662136.34960599
 20
6868267.6452686
 10
662137.949945649
 20
6868270.30515639
 10
662137.949945649
 20
6868270.30515639
 10
662138.008039291
 20
6868270.39467785
 10
662138.072079669
 20
6868270.48004641
 10
662138.141770953
 20
6868270.56086773
 10
662138.216791212
 20
6868270.63676847
 10
662138.296793898
 20
6868270.70739801
 10
662138.381409447
 20
6868270.77243008
 10
662138.470246986
 20
6868270.83156428
 10
662138.562896138
 20
6868270.88452743
 10
662138.658928922
 20
6868270.93107489
 10
662138.757901723
 20
6868270.97099163
 10
662138.859357346
 20
6868271.00409326
 10
662138.962827128
 20
6868271.03022687
 10
662139.067833101
 20
6868271.04927174
 10
662139.173890201
 20
6868271.0611399
 10
662139.280508508
 20
6868271.06577651
 10
662139.387195509
 20
6868271.06316016
 10
662139.493458375
 20
6868271.05330294
 10
662139.598806236
 20
6868271.03625039
 10
662139.702752447
 20
6868271.01208126
 10
662139.804816841
 20
6868270.98090722
 10
662139.904527942
 20
6868270.94287226
 10
662140.001425143
 20
6868270.89815209
 10
662140.095060839
 20
6868270.84695328
 10
662140.09506084
 20
6868270.84695328
 10
662140.499406285
 20
6868270.62189679
 10
662140.915094478
 20
6868270.41855228
 10
662141.340960598
 20
6868270.23748956
 10
662145.81137208
 20
6868268.47503655
 10
662146.601448961
 20
6868269.77502286
  0
LWPOLYLINE
  5
20044
100
AcDbEntity
  8
0
100
AcDbPolyline
 70
0
 90
22
 10
662077.903090041
 20
6868257.61192309
 10
662079.112801859
 20
6868257.13156854
 10
662083.07501487
 20
6868255.41216979
 10
662088.209035605
 20
6868253.42098999
 10
662093.067329032
 20
6868251.44589187
 10
662093.067329031
 20
6868251.44589186
 10
662093.125207111
 20
6868251.42010492
 10
662093.181258172
 20
6868251.39055636
 10
662093.235238069
 20
6868251.3573749
 10
662093.286911677
 20
6868251.32070506
 10
662093.336053919
 20
6868251.28070658
 10
662093.382450741
 20
6868251.23755367
 10
662093.425900051
 20
6868251.1914343
 10
662093.466212591
 20
6868251.14254936
 10
662093.503212771
 20
6868251.09111177
 10
662093.536739427
 20
6868251.03734559
 10
662093.566646523
 20
6868250.98148501
 10
662093.592803791
 20
6868250.92377335
 10
662093.615097297
 20
6868250.86446198
 10
662093.633429933
 20
6868250.80380925
 10
662095.683289886
 20
6868243.1142866
 10
662095.859761301
 20
6868240.1597616
  0
LWPOLYLINE
  5
20045
100
AcDbEntity
  8
0
100
AcDbPolyline
 70
0
 90
7
 10
662086.873618765
 20
6868279.41994883
 10
662086.468794712
 20
6868278.43326356
 10
662084.833402112
 20
6868274.5470487
 10
662082.995470521
 20
6868269.97140457
 10
662080.912927923
 20
6868265.10916244
 10
662078.213391834
 20
6868258.40684555
 10
662077.903090041
 20
6868257.61192309
  0
LWPOLYLINE
  5
20046
100
AcDbEntity
  8
0
100
AcDbPolyline
 70
0
 90
55
 10
662070.777531162
 20
6868252.06621319
 10
662071.025568842
 20
6868252.29165442
 10
662072.690273525
 20
6868251.50229563
 10
662079.005528494
 20
6868248.72068207
 10
662085.222306583
 20
6868245.99161544
 10
662093.194691275
 20
6868241.83321659
 10
662095.646017653
 20
6868240.78074815
 10
662095.859761301
 20
6868240.1597616
 10
662096.367708096
 20
6868240.44055878
 10
662099.045612274
 20
6868239.570093
 10
662103.666463928
 20
6868237.61694631
 10
662107.268473
 20
6868236.27449231
 10
662109.68849499
 20
6868235.38440605
 10
662113.608064457
 20
6868234.29434672
 10
662118.153043795
 20
6868232.07685972
 10
662119.497139536
 20
6868230.70990149
 10
662119.497139536
 20
6868230.70990149
 10
662119.535758418
 20
6868230.66793514
 10
662119.571518096
 20
6868230.62350724
 10
662119.604262075
 20
6868230.57681222
 10
662119.633847058
 20
6868230.52805444
 10
662119.660143575
 20
6868230.47744727
 10
662119.683036542
 20
6868230.42521217
 10
662119.702425775
 20
6868230.37157776
 10
662119.71822642
 20
6868230.31677874
 10
662119.73036933
 20
6868230.26105494
 10
662119.738801364
 20
6868230.2046502
 10
662119.74348562
 20
6868230.14781139
 10
662119.744401599
 20
6868230.09078724
 10
662119.741545294
 20
6868230.03382731
 10
662119.734929202
 20
6868229.97718086
 10
662119.724582279
 20
6868229.9210958
 10
662119.710549806
 20
6868229.86581757
 10
662119.692893192
 20
6868229.81158809
 10
662119.692893193
 20
6868229.81158809
 10
662119.661857737
 20
6868229.71603191
 10
662119.637349621
 20
6868229.61859713
 10
662119.61948086
 20
6868229.51972909
 10
662119.608333122
 20
6868229.41987964
 10
662119.603957358
 20
6868229.31950516
 10
662119.606373567
 20
6868229.21906441
 10
662119.615570706
 20
6868229.11901644
 10
662119.63150674
 20
6868229.01981853
 10
662119.654108832
 20
6868228.92192406
 10
662119.683273682
 20
6868228.82578044
 10
662119.718867991
 20
6868228.73182711
 10
662119.760729075
 20
6868228.64049348
 10
662119.808665611
 20
6868228.55219698
 10
662119.862458503
 20
6868228.46734117
 10
662119.921861894
 20
6868228.38631389
 10
662119.986604281
 20
6868228.30948547
 10
662120.056389759
 20
6868228.23720705
 10
662120.130899376
 20
6868228.16980898
 10
662121.15564612
 20
6868227.30401577
 10
662121.651562625
 20
6868227.09059614
  0
LWPOLYLINE
  5
20047
100
AcDbEntity
  8
0
100
AcDbPolyline
 70
0
 90
2
 10
661822.783925036
 20
6868398.96733834
 10
661823.167919242
 20
6868397.25375734
  0
ENDSEC
  0
SECTION
  2
OBJECTS
  0
DICTIONARY
  5
C
330
0
100
AcDbDictionary
281
     1
  3
ACAD_GROUP
350
D
  3
ACAD_LAYOUT
350
1A
  3
ACAD_MLEADERSTYLE
350
43
  3
ACAD_PLOTSETTINGS
350
19
  3
ACAD_PLOTSTYLENAME
350
E
  3
ACAD_TABLESTYLE
350
42
  0
DICTIONARY
  5
D
102
{ACAD_REACTORS
330
C
102
}
330
C
100
AcDbDictionary
281
     1
  0
DICTIONARY
  5
1A
102
{ACAD_REACTORS
330
C
102
}
330
C
100
AcDbDictionary
281
     1
  3
Layout1
350
1E
  3
Model
350
22
  0
DICTIONARY
  5
43
102
{ACAD_REACTORS
330
C
102
}
330
C
100
AcDbDictionary
281
     1
  0
DICTIONARY
  5
19
102
{ACAD_REACTORS
330
C
102
}
330
C
100
AcDbDictionary
281
     1
  0
ACDBDICTIONARYWDFLT
  5
E
102
{ACAD_REACTORS
330
C
102
}
330
C
100
AcDbDictionary
281
     1
  3
Normal
350
F
100
AcDbDictionaryWithDefault
340
F
  0
DICTIONARY
  5
42
102
{ACAD_REACTORS
330
C
102
}
330
C
100
AcDbDictionary
281
     1
  0
LAYOUT
  5
1E
102
{ACAD_REACTORS
330
1A
102
}
330
1A
100
AcDbPlotSettings
  1

  2
none_device
  4

  6

 40
0.0
 41
0.0
 42
0.0
 43
0.0
 44
0.0
 45
0.0
 46
0.0
 47
0.0
 48
0.0
 49
0.0
140
0.0
141
0.0
142
1.0
143
1.0
 70
   688
 72
     0
 73
     0
 74
     5
  7

 75
    16
 76
     0
 77
     2
 78
   300
147
1.0
148
0.0
149
0.0
100
AcDbLayout
  1
Layout1
 70
     1
 71
     1
 10
0.0
 20
0.0
 11
12.0
 21
9.0
 12
0.0
 22
0.0
 32
0.0
 14
1.000000000000000E+20
 24
1.000000000000000E+20
 34
1.000000000000000E+20
 15
-1.000000000000000E+20
 25
-1.000000000000000E+20
 35
-1.000000000000000E+20
146
0.0
 13
0.0
 23
0.0
 33
0.0
 16
1.0
 26
0.0
 36
0.0
 17
0.0
 27
1.0
 37
0.0
 76
     0
330
1B
  0
LAYOUT
  5
22
102
{ACAD_REACTORS
330
1A
102
}
330
1A
100
AcDbPlotSettings
  1

  2
none_device
  4

  6

 40
0.0
 41
0.0
 42
0.0
 43
0.0
 44
0.0
 45
0.0
 46
0.0
 47
0.0
 48
0.0
 49
0.0
140
0.0
141
0.0
142
1.0
143
1.0
 70
  1712
 72
     0
 73
     0
 74
     0
  7

 75
     0
 76
     0
 77
     2
 78
   300
147
1.0
148
0.0
149
0.0
100
AcDbLayout
  1
Model
 70
     1
 71
     0
 10
0.0
 20
0.0
 11
12.0
 21
9.0
 12
0.0
 22
0.0
 32
0.0
 14
30.0
 24
49.75
 34
0.0
 15
130.5
 25
163.1318914119703
 35
0.0
146
0.0
 13
0.0
 23
0.0
 33
0.0
 16
1.0
 26
0.0
 36
0.0
 17
0.0
 27
1.0
 37
0.0
 76
     0
330
1F
331
29
  0
ACDBPLACEHOLDER
  5
F
102
{ACAD_REACTORS
330
E
102
}
330
E
  0
ENDSEC
  0
EOF
